<svg width="58" height="60" viewBox="0 0 58 60" fill="none" xmlns="http://www.w3.org/2000/svg">
<path d="M10.1525 10.5169C12.0087 12.03 12.7119 11.9231 16.2163 11.6888L49.2537 9.70689C49.9569 9.70689 49.3719 9.00377 49.1356 8.88564L43.6475 4.92002C42.6031 4.09877 41.1969 3.17252 38.51 3.39564L6.52812 5.73939C5.35625 5.84627 5.12188 6.43314 5.59063 6.90189L10.1525 10.5169ZM12.1344 18.2231V52.9781C12.1344 54.8438 13.0625 55.5469 15.1625 55.4288L51.4719 53.3288C53.5719 53.2106 53.8156 51.9319 53.8156 50.4094V15.8888C53.8156 14.3644 53.2288 13.5544 51.9406 13.6725L14.0019 15.8888C12.5956 16.0069 12.1362 16.6988 12.1362 18.2138L12.1344 18.2231ZM47.975 20.0775C48.2094 21.1331 47.975 22.1775 46.9194 22.305L45.1719 22.6575V48.3113C43.6475 49.1325 42.2525 49.6013 41.09 49.6013C39.215 49.6013 38.7463 49.0144 37.3494 47.2669L25.9044 29.2988V46.6819L29.5269 47.5031C29.5269 47.5031 29.5269 49.6031 26.6075 49.6031L18.5506 50.0719C18.3162 49.6031 18.5506 48.4313 19.3719 48.2063L21.4719 47.6194V24.6413L18.5525 24.4069C18.3181 23.3513 18.905 21.8381 20.5344 21.7219L29.1763 21.135L41.09 39.3375V23.2331L38.0525 22.8806C37.8181 21.6019 38.7463 20.6644 39.9181 20.5556L47.975 20.0775ZM3.84312 2.58752L37.115 0.136892C41.1969 -0.215608 42.2525 0.0187671 44.8194 1.88439L55.445 9.35439C57.1925 10.6331 57.7794 10.9856 57.7794 12.3825V53.3306C57.7794 55.8994 56.8419 57.4125 53.5794 57.6469L14.9263 59.9813C12.485 60.0994 11.3131 59.7469 10.0231 58.1156L2.20063 47.9588C0.80375 46.0931 0.21875 44.6963 0.21875 43.0669V6.67127C0.21875 4.57127 1.15625 2.82377 3.84125 2.58939L3.84312 2.58752Z" fill="black"/>
</svg>
