<svg width="60" height="60" viewBox="0 0 60 60" fill="none" xmlns="http://www.w3.org/2000/svg">
<g clip-path="url(#clip0_5_24)">
<path d="M7.5 0C3.345 0 0 3.345 0 7.5V52.5C0 56.655 3.345 60 7.5 60H52.5C56.655 60 60 56.655 60 52.5V7.5C60 3.345 56.655 0 52.5 0H7.5ZM24.7075 15.625C26.2825 15.625 27.22 16.375 27.52 17.875L31.1775 38.6325C32.3392 37.0942 33.2942 35.8 34.0425 34.75C35.2863 32.9598 36.3601 31.0574 37.25 29.0675C38.2633 26.9292 38.77 25.0167 38.77 23.33C38.77 22.3183 38.4883 21.5125 37.925 20.9125C37.4 20.2758 36.4058 19.47 34.9425 18.495C36.4425 16.5817 38.3175 15.625 40.5675 15.625C41.7675 15.625 42.7617 15.9817 43.55 16.695C44.375 17.4067 44.7867 18.4567 44.785 19.845C44.785 22.17 43.81 25.0767 41.86 28.565C39.9483 32.015 36.2558 37.2083 30.7825 44.145L25.215 44.535L20.9375 20.465H15.3125V18.1C16.8125 17.6117 18.575 17.0867 20.6 16.525C22.625 15.925 23.9942 15.625 24.7075 15.625Z" fill="#20C997"/>
</g>
<defs>
<clipPath id="clip0_5_24">
<rect width="60" height="60" fill="white"/>
</clipPath>
</defs>
</svg>
