<svg width="18" height="10" viewBox="0 0 18 10" fill="none" xmlns="http://www.w3.org/2000/svg">
<path d="M8.16675 9.16671H4.83342C3.68064 9.16671 2.69814 8.76032 1.88592 7.94754C1.07369 7.13476 0.667304 6.15226 0.666749 5.00004C0.666193 3.84782 1.07258 2.86532 1.88592 2.05254C2.69925 1.23976 3.68175 0.833374 4.83342 0.833374H8.16675V2.50004H4.83342C4.13897 2.50004 3.54869 2.7431 3.06258 3.22921C2.57647 3.71532 2.33342 4.3056 2.33342 5.00004C2.33342 5.69449 2.57647 6.28476 3.06258 6.77087C3.54869 7.25699 4.13897 7.50004 4.83342 7.50004H8.16675V9.16671ZM5.66675 5.83337V4.16671H12.3334V5.83337H5.66675ZM9.83342 9.16671V7.50004H13.1667C13.8612 7.50004 14.4515 7.25699 14.9376 6.77087C15.4237 6.28476 15.6667 5.69449 15.6667 5.00004C15.6667 4.3056 15.4237 3.71532 14.9376 3.22921C14.4515 2.7431 13.8612 2.50004 13.1667 2.50004H9.83342V0.833374H13.1667C14.3195 0.833374 15.3023 1.23976 16.1151 2.05254C16.9279 2.86532 17.334 3.84782 17.3334 5.00004C17.3329 6.15226 16.9265 7.13504 16.1142 7.94837C15.302 8.76171 14.3195 9.16782 13.1667 9.16671H9.83342Z" fill="black"/>
</svg>
