<svg width="40" height="40" viewBox="0 0 40 40" fill="none" xmlns="http://www.w3.org/2000/svg">
<g clip-path="url(#clip0_11_105)">
<path d="M30.625 0H9.375C4.19733 0 0 4.19733 0 9.375V30.625C0 35.8027 4.19733 40 9.375 40H30.625C35.8027 40 40 35.8027 40 30.625V9.375C40 4.19733 35.8027 0 30.625 0Z" fill="#242938"/>
<path d="M20 5.3125L34.8438 31.0708H5.15625L20 5.3125Z" fill="white"/>
<path d="M0 0H40V40H0V0Z" fill="url(#paint0_linear_11_105)"/>
<path d="M27.5609 26.0616C27.5609 25.2345 26.888 24.5616 26.0609 24.5616C25.2339 24.5616 24.5609 25.2345 24.5609 26.0616C24.5609 26.8886 25.2341 27.5616 26.0609 27.5616C26.888 27.5616 27.5609 26.8884 27.5609 26.0616ZM28.5609 26.0616C28.5609 27.44 27.4395 28.5616 26.0609 28.5616C24.6825 28.5616 23.5609 27.44 23.5609 26.0616C23.5609 24.683 24.6825 23.5616 26.0609 23.5616C27.4395 23.5616 28.5609 24.683 28.5609 26.0616ZM15.1959 18.8459C15.1959 18.0191 14.523 17.3459 13.6959 17.3459C12.8684 17.3459 12.1959 18.0191 12.1959 18.8459C12.1959 19.673 12.8684 20.3459 13.6959 20.3459C14.523 20.3459 15.1959 19.673 15.1959 18.8459ZM16.1959 18.8459C16.1959 20.2245 15.0741 21.3459 13.6959 21.3459C12.3175 21.3459 11.1959 20.2245 11.1959 18.8459C11.1959 17.4675 12.3175 16.3459 13.6959 16.3459C15.0741 16.3459 16.1959 17.4675 16.1959 18.8459ZM19.865 11.0034C19.865 11.8305 20.538 12.5034 21.365 12.5034C22.1925 12.5034 22.865 11.8305 22.865 11.0034C22.865 10.1759 22.1925 9.50344 21.365 9.50344C20.538 9.50344 19.865 10.1759 19.865 11.0034ZM18.865 11.0034C18.865 9.625 19.9869 8.50344 21.365 8.50344C22.7434 8.50344 23.865 9.625 23.865 11.0034C23.865 12.382 22.7434 13.5034 21.365 13.5034C19.9869 13.5034 18.865 12.382 18.865 11.0034ZM33 20C33 15.3634 30.5141 11.0741 26.5059 8.75453C25.7875 8.89953 25.0925 9.09797 24.2255 9.41156L23.8855 8.47094C24.2968 8.3217 24.7129 8.18569 25.133 8.06312C23.5122 7.36305 21.7655 7.00129 20 7C19.1555 7 18.3245 7.0875 17.5125 7.24594C18.1005 7.59 18.6219 7.93297 19.1284 8.31703L18.5241 9.11344C17.81 8.5725 17.07 8.11406 16.0984 7.605C11.1891 9.14906 7.65313 13.4791 7.09156 18.5641C8.12094 18.3555 9.10953 18.242 10.207 18.215L10.2316 19.2145C9.08156 19.243 8.09344 19.365 7.01344 19.6025C7.00906 19.735 7 19.8691 7 20C7 24.3291 9.14156 28.318 12.6634 30.7234C12.0369 28.858 11.725 27.095 11.725 25.373C11.725 24.3909 11.8941 23.5845 12.0725 22.7309C12.1141 22.5334 12.1559 22.3325 12.197 22.1241L13.1784 22.3175C13.1366 22.5295 13.0934 22.735 13.0516 22.9366C12.8766 23.7725 12.725 24.4944 12.725 25.373C12.725 27.327 13.1541 29.3475 14.027 31.5416C15.8864 32.507 17.8945 33 20 33C21.3781 33 22.723 32.78 24.0059 32.357C24.5095 31.3634 24.883 30.4259 25.195 29.3495L26.1555 29.628C25.9375 30.3816 25.6699 31.1201 25.3545 31.8384C26.1616 31.4755 26.925 31.0266 27.6416 30.5025C27.4691 30.0795 27.2841 29.6591 27.0795 29.2494L27.9741 28.802C28.148 29.15 28.3075 29.5059 28.46 29.8641C31.3525 27.3875 33 23.83 33 20ZM34 20C34 24.3634 32.017 28.3995 28.5605 31.0745C27.7045 31.7395 26.7761 32.2916 25.7945 32.7359C25.378 32.925 24.9539 33.1 24.518 33.2469C23.078 33.7466 21.5566 34 20 34C17.7 34 15.4159 33.427 13.3941 32.343C8.83344 29.9031 6 25.1734 6 20C6 19.657 6.00906 19.3959 6.02953 19.1545C6.37 13.3125 10.378 8.25609 16.0005 6.58297C17.2809 6.19656 18.6275 6 20 6C22.4041 6 24.7695 6.61906 26.842 7.78953C31.2566 10.2625 34 14.942 34 20ZM18.657 12.7316L18 11.978C16.8791 12.9561 16.007 13.9945 14.9884 15.563L15.8275 16.1075C16.7916 14.622 17.6116 13.6441 18.657 12.7316ZM17.1375 19.2134L16.8125 20.1591C19.1091 20.9475 21.1125 22.2055 23.117 24.118L23.8075 23.3945C21.6945 21.3789 19.575 20.0505 17.1375 19.2134ZM23.823 13.3341C25.6991 16.195 26.7555 19.3356 26.9625 22.6691L25.9645 22.7309C25.768 19.5731 24.7666 16.5959 22.9875 13.8825L23.823 13.3341Z" fill="white"/>
</g>
<defs>
<linearGradient id="paint0_linear_11_105" x1="0" y1="4000" x2="4000" y2="0" gradientUnits="userSpaceOnUse">
<stop stop-color="#4D27A8"/>
<stop offset="1" stop-color="#A166FF"/>
</linearGradient>
<clipPath id="clip0_11_105">
<rect width="40" height="40" fill="white"/>
</clipPath>
</defs>
</svg>
