<svg width="16" height="16" viewBox="0 0 16 16" fill="none" xmlns="http://www.w3.org/2000/svg">
<g clip-path="url(#clip0_10_389)">
<path d="M4.83274 6.08381L7.86524 4.32881C7.9033 4.30973 7.94529 4.2998 7.98786 4.2998C8.03044 4.2998 8.07242 4.30973 8.11049 4.32881L11.1559 6.08381C11.2334 6.12256 11.285 6.21281 11.285 6.29018V9.80018C11.285 9.89056 11.2334 9.96793 11.1559 10.0196L8.12336 11.7746C8.0853 11.7936 8.04331 11.8036 8.00074 11.8036C7.95816 11.8036 7.91618 11.7936 7.87811 11.7746L4.83274 10.0196C4.75524 9.9808 4.70361 9.89056 4.70361 9.80018V6.29018C4.70361 6.21268 4.75524 6.12243 4.83274 6.08381Z" fill="#8080F2"/>
<path d="M15.8918 7.6837L12.2655 1.36057C12.1365 1.12832 11.8914 0.960571 11.6204 0.960571H4.36805C4.11005 0.960571 3.8648 1.12832 3.72292 1.36057L0.0966746 7.67095C0.0332659 7.78547 0 7.91423 0 8.04513C0 8.17604 0.0332659 8.3048 0.0966746 8.41932L3.72292 14.6909C3.85192 14.9232 4.09705 15.0393 4.36805 15.0393H11.6333C11.8914 15.0393 12.1365 14.9232 12.2785 14.7038L15.9048 8.4322C16.0338 8.1742 16.0338 7.90307 15.8918 7.6837ZM12.8849 10.7162C12.8849 10.8066 12.8333 10.8968 12.7429 10.9356L8.12317 13.6068C8.08484 13.632 8.03998 13.6454 7.99411 13.6454C7.94825 13.6454 7.90338 13.632 7.86505 13.6068L3.23255 10.9486C3.15505 10.8969 3.09055 10.8196 3.09055 10.7292V5.37382C3.09055 5.28357 3.14217 5.1932 3.23255 5.15457L7.86517 2.48332C7.90351 2.45813 7.94837 2.44471 7.99424 2.44471C8.0401 2.44471 8.08497 2.45813 8.1233 2.48332L12.7561 5.15457C12.8334 5.20607 12.8979 5.28357 12.8979 5.37382V10.7163L12.8849 10.7162Z" fill="#4B32C3"/>
</g>
<defs>
<clipPath id="clip0_10_389">
<rect width="16" height="16" fill="white"/>
</clipPath>
</defs>
</svg>
