<svg width="16" height="16" viewBox="0 0 16 16" fill="none" xmlns="http://www.w3.org/2000/svg">
<path d="M15.8338 12.305C15.2638 12.45 14.9113 12.3113 14.5951 11.8363C13.8851 10.7725 13.1013 9.75752 12.3451 8.72377C12.2476 8.59002 12.1463 8.45877 12.0201 8.29252C11.1251 9.50002 10.2313 10.65 9.3926 11.8463C9.0926 12.2738 8.7776 12.46 8.2176 12.3088L11.5826 7.79252L8.4501 3.71377C8.98885 3.60877 9.36135 3.66252 9.69135 4.14502C10.4201 5.21002 11.2238 6.22377 12.0251 7.29627C12.8313 6.22752 13.6251 5.21252 14.3751 4.15752C14.6763 3.73002 15.0001 3.56752 15.5413 3.72502C15.1313 4.26877 14.7301 4.80377 14.3263 5.33502C13.7813 6.05127 13.2463 6.77627 12.6813 7.47752C12.4801 7.72752 12.5126 7.89002 12.6926 8.12627C13.7376 9.50002 14.7701 10.8875 15.8338 12.305ZM0.166348 7.71752C0.256348 7.26627 0.316348 6.80627 0.441348 6.36377C1.19135 3.68502 4.26635 2.57127 6.37885 4.23127C7.61635 5.20502 7.92385 6.57752 7.8626 8.12502H0.887598C0.782598 10.9013 2.78135 12.5775 5.32885 11.7225C6.2226 11.4225 6.74885 10.7225 7.0126 9.84752C7.14635 9.40877 7.3676 9.34002 7.7801 9.46502C7.56885 10.56 7.0901 11.475 6.0901 12.0475C4.5901 12.905 2.44885 12.6275 1.3226 11.4363C0.657598 10.7363 0.375098 9.86502 0.250098 8.92377C0.231348 8.77377 0.192598 8.62627 0.162598 8.47752C0.165098 8.22419 0.166348 7.97085 0.166348 7.71752ZM0.900098 7.53127H7.20385C7.1626 5.52377 5.9126 4.09752 4.20385 4.08502C2.32885 4.07002 0.981348 5.46252 0.900098 7.53127Z" fill="black"/>
</svg>
