<svg width="40" height="40" viewBox="0 0 40 40" fill="none" xmlns="http://www.w3.org/2000/svg">
<path d="M14.8 36.5C16.2625 37.0875 17.85 37.4375 19.525 37.5C21.7875 37.575 23.925 37.1125 25.85 36.225C23.55 35.325 21.4625 34 19.6875 32.35C18.5278 34.2016 16.8255 35.6508 14.8125 36.5H14.8Z" fill="#FF9100"/>
<path d="M19.675 32.35C15.6125 28.6 13.15 23.1625 13.3625 17.2C13.3625 17.0125 13.375 16.8125 13.3875 16.625C11.5844 16.1649 9.69211 16.1865 7.89998 16.6875C6.81248 18.5875 6.16248 20.7625 6.07498 23.1C5.86248 29.125 9.51248 34.3875 14.8 36.5125C16.8187 35.6726 18.5235 34.2213 19.675 32.3625V32.35Z" fill="#FFC400"/>
<path d="M19.675 32.35C20.6494 30.7898 21.1969 29.0009 21.2625 27.1625C21.4375 22.1375 18.0625 17.825 13.3875 16.6125C13.3875 16.8 13.3625 17 13.3625 17.1875C13.2579 20.0189 13.7681 22.8393 14.8578 25.4546C15.9475 28.0699 17.5909 30.4181 19.675 32.3376V32.35Z" fill="#FF9100"/>
<path d="M20.7375 2.5C18.075 4.625 15.975 7.4375 14.7 10.675C13.9547 12.5734 13.5118 14.5769 13.3875 16.6125C15.7052 17.2116 17.749 18.5838 19.1809 20.5021C20.6129 22.4205 21.3472 24.7701 21.2625 27.1625C21.2046 29.0022 20.6566 30.793 19.675 32.35C21.4713 34.0123 23.561 35.3263 25.8375 36.225C30.4625 34.0875 33.7375 29.5 33.925 24.0625C34.05 20.5375 32.7 17.4 30.7875 14.75C28.7625 11.95 20.7375 2.5125 20.7375 2.5125V2.5Z" fill="#DD2C00"/>
</svg>
