<svg width="16" height="16" viewBox="0 0 16 16" fill="none" xmlns="http://www.w3.org/2000/svg">
<g clip-path="url(#clip0_9_131)">
<path d="M2.18433 12.9095L4.1537 0.307771C4.1655 0.23246 4.20065 0.162757 4.25421 0.108508C4.30776 0.0542597 4.37701 0.0182067 4.45216 0.00544175C4.52731 -0.00732324 4.60458 0.00384492 4.67304 0.0373688C4.7415 0.0708926 4.7977 0.125078 4.8337 0.192271L6.87045 3.99102L7.6822 2.44527C7.71307 2.38664 7.75936 2.33755 7.81609 2.30331C7.87281 2.26906 7.93782 2.25096 8.00408 2.25096C8.07034 2.25096 8.13534 2.26906 8.19207 2.30331C8.24879 2.33755 8.29509 2.38664 8.32595 2.44527L13.8222 12.9095H2.18433Z" fill="#FFA000"/>
<path d="M8.98795 8.00064L6.86945 3.98914L2.18433 12.9095L8.98795 8.00064Z" fill="#F57C00"/>
<path d="M13.8222 12.9095L12.3138 3.5755C12.3027 3.5097 12.2736 3.44824 12.2299 3.39784C12.1862 3.34744 12.1294 3.31004 12.0658 3.28975C12.0023 3.2695 11.9344 3.26712 11.8696 3.28286C11.8048 3.2986 11.7455 3.33186 11.6983 3.379L2.18433 12.9094L7.4487 15.8616C7.61128 15.9524 7.79438 16 7.98058 16C8.16677 16 8.34987 15.9524 8.51245 15.8616L13.8222 12.9095Z" fill="#FFCA28"/>
<path d="M12.3139 3.57548C12.3027 3.50968 12.2737 3.44822 12.2299 3.39782C12.1862 3.34742 12.1294 3.31003 12.0659 3.28973C12.0023 3.26947 11.9344 3.26706 11.8696 3.28278C11.8048 3.2985 11.7456 3.33174 11.6984 3.37885L9.80998 5.27223L8.3251 2.44523C8.29424 2.3866 8.24794 2.33751 8.19122 2.30326C8.13449 2.26902 8.06949 2.25092 8.00323 2.25092C7.93697 2.25092 7.87197 2.26902 7.81524 2.30326C7.75851 2.33751 7.71222 2.3866 7.68135 2.44523L6.8696 3.99085L4.83285 0.192228C4.79681 0.124943 4.74051 0.0707009 4.67193 0.0371847C4.60335 0.00366841 4.52596 -0.00742392 4.45073 0.00547845C4.37555 0.0183773 4.30632 0.0545855 4.25284 0.108982C4.19937 0.163379 4.16434 0.233212 4.15273 0.308603L2.18435 12.9095H2.17798L2.18423 12.9167L2.2361 12.9422L11.6956 3.47173C11.7428 3.42435 11.8021 3.39088 11.8671 3.37501C11.932 3.35914 12.0001 3.36149 12.0638 3.38178C12.1275 3.40207 12.1844 3.43953 12.2282 3.49004C12.272 3.54056 12.301 3.60217 12.3121 3.6681L13.8077 12.9185L13.8222 12.9094L12.3139 3.57548ZM2.2016 12.8922L4.1536 0.397728C4.1652 0.322296 4.20023 0.252423 4.25374 0.198C4.30724 0.143577 4.3765 0.107361 4.45173 0.0944784C4.52698 0.081587 4.60437 0.0926979 4.67295 0.126237C4.74154 0.159777 4.79783 0.214044 4.83385 0.281353L6.87035 4.0801L7.68223 2.53435C7.71309 2.47572 7.75939 2.42663 7.81611 2.39239C7.87284 2.35814 7.93784 2.34005 8.0041 2.34005C8.07036 2.34005 8.13537 2.35814 8.19209 2.39239C8.24882 2.42663 8.29511 2.47572 8.32598 2.53435L9.78073 5.30123L2.20135 12.8922H2.2016Z" fill="white" fill-opacity="0.2"/>
<path opacity="0.2" d="M8.51246 15.7725C8.34988 15.8632 8.16678 15.9109 7.98058 15.9109C7.79439 15.9109 7.61129 15.8632 7.44871 15.7725L2.19683 12.8287L2.18408 12.9096L7.44846 15.8609C7.61104 15.9516 7.79414 15.9993 7.98033 15.9993C8.16653 15.9993 8.34963 15.9516 8.51221 15.8609L13.8222 12.9096L13.8085 12.8259L8.51221 15.7727L8.51246 15.7725Z" fill="#A52714"/>
</g>
<defs>
<clipPath id="clip0_9_131">
<rect width="16" height="16" fill="white"/>
</clipPath>
</defs>
</svg>
