<svg width="16" height="16" viewBox="0 0 16 16" fill="none" xmlns="http://www.w3.org/2000/svg">
<path d="M13.5445 7.89298C13.5445 7.5474 13.4072 7.21598 13.1629 6.97162C12.9185 6.72726 12.5871 6.58998 12.2415 6.58998C12.1948 6.58998 12.1492 6.59231 12.1045 6.59698L13.8945 1.31848H6.28851L8.07551 6.59248C8.04951 6.59248 8.02301 6.58998 7.99651 6.58998C7.68574 6.59027 7.38531 6.70158 7.14937 6.90384C6.91343 7.1061 6.75751 7.386 6.70973 7.69307C6.66195 8.00014 6.72545 8.31418 6.88878 8.57856C7.05211 8.84295 7.30453 9.04028 7.60051 9.13498C7.32324 9.61214 6.97813 10.0465 6.57601 10.4245C6.05292 10.9253 5.43097 11.3114 4.75001 11.558C4.3686 11.3771 4.07031 11.0578 3.91569 10.665C3.76108 10.2722 3.76173 9.83532 3.91751 9.44298C3.95618 9.35298 3.99451 9.26231 4.03251 9.17098C4.32318 9.10258 4.58156 8.93649 4.76449 8.70047C4.94741 8.46445 5.04379 8.1728 5.03752 7.87426C5.03124 7.57572 4.9227 7.28837 4.73002 7.06025C4.53734 6.83212 4.27221 6.67703 3.97893 6.6209C3.68564 6.56477 3.38198 6.611 3.11868 6.75186C2.85538 6.89271 2.64841 7.11967 2.53234 7.3948C2.41627 7.66993 2.39815 7.97655 2.481 8.26344C2.56384 8.55032 2.74264 8.80008 2.98751 8.97098C2.57088 9.72497 2.25341 10.5296 2.04301 11.365C1.86601 12.4325 2.04301 13.565 2.96551 14.2055C5.11551 15.696 7.45001 13.2815 9.91101 12.675C10.803 12.455 11.782 12.4905 12.5675 12.035C12.8515 11.8736 13.0964 11.6516 13.2847 11.3847C13.4731 11.1178 13.6002 10.8126 13.657 10.491C13.7092 10.1847 13.6993 9.87099 13.6279 9.56857C13.5565 9.26615 13.4251 8.98115 13.2415 8.73048C13.4375 8.49623 13.5448 8.20043 13.5445 7.89498V7.89298ZM9.30001 7.89998V7.89548C9.30038 7.67125 9.24275 7.45073 9.13271 7.25536C9.02267 7.05998 8.86396 6.89639 8.67201 6.78048L10.094 3.89998L11.519 6.80698C11.3402 6.92578 11.1937 7.08699 11.0924 7.27623C10.9911 7.46547 10.9382 7.67684 10.9385 7.89148V7.91998L9.30001 7.89998Z" fill="#99425B"/>
<path d="M13.863 7.893C13.8622 7.51527 13.7298 7.14961 13.4887 6.85889C13.2475 6.56817 12.9126 6.37055 12.5415 6.3L14.3385 1H5.84449L7.64449 6.3105C7.3301 6.38051 7.04369 6.5426 6.82181 6.77608C6.59993 7.00956 6.45264 7.30384 6.39872 7.62139C6.34481 7.93894 6.38671 8.26535 6.51909 8.55897C6.65147 8.8526 6.86833 9.10014 7.14199 9.27C6.91543 9.60559 6.6525 9.91513 6.35799 10.193C5.90168 10.63 5.36517 10.9747 4.77799 11.208C4.50269 11.0478 4.29404 10.7941 4.18999 10.493C4.08593 10.1919 4.09339 9.86353 4.21099 9.5675L4.23099 9.521L4.26799 9.4335C4.60108 9.31795 4.88745 9.09701 5.08374 8.80413C5.28003 8.51126 5.37555 8.16241 5.35583 7.81039C5.33612 7.45838 5.20224 7.12237 4.97448 6.85325C4.74671 6.58413 4.43746 6.39655 4.09355 6.31891C3.74963 6.24127 3.38979 6.2778 3.0685 6.42298C2.74721 6.56815 2.48196 6.81406 2.31293 7.12346C2.1439 7.43287 2.08029 7.78892 2.13172 8.13772C2.18316 8.48652 2.34684 8.80905 2.59799 9.0565C2.54365 9.17183 2.48715 9.2895 2.42849 9.4095C2.1043 10.0056 1.8685 10.6456 1.72849 11.3095C1.49599 12.7095 1.87099 13.831 2.78399 14.4635C3.27479 14.8145 3.86359 15.0022 4.46699 15C5.53299 15 6.61149 14.4645 7.66699 13.9405C8.40436 13.5394 9.18243 13.218 9.98799 12.982C10.2851 12.9136 10.5855 12.8604 10.888 12.8225C11.5285 12.771 12.153 12.5964 12.7275 12.3085C13.0515 12.1234 13.3308 11.8694 13.5457 11.5644C13.7606 11.2594 13.9058 10.9109 13.971 10.5435C14.0771 9.91944 13.9546 9.27802 13.626 8.737C13.7822 8.48327 13.864 8.19096 13.863 7.893ZM13.2265 7.893C13.2265 8.08781 13.1687 8.27825 13.0605 8.44024C12.9522 8.60222 12.7984 8.72847 12.6184 8.80302C12.4384 8.87757 12.2404 8.89708 12.0493 8.85907C11.8583 8.82107 11.6827 8.72726 11.545 8.5895C11.4072 8.45175 11.3134 8.27624 11.2754 8.08516C11.2374 7.89409 11.2569 7.69604 11.3315 7.51606C11.406 7.33607 11.5323 7.18224 11.6942 7.074C11.8562 6.96577 12.0467 6.908 12.2415 6.908C12.5026 6.9084 12.7529 7.0123 12.9375 7.19694C13.1222 7.38158 13.2261 7.63188 13.2265 7.893ZM13.45 1.6365L11.863 6.3165C11.7949 6.33265 11.7281 6.35353 11.663 6.379L10.0955 3.179L8.52299 6.36C8.45462 6.33596 8.38461 6.31691 8.31349 6.303L6.73199 1.6365H13.45ZM7.99649 6.908C8.1913 6.908 8.38174 6.96577 8.54372 7.074C8.70571 7.18224 8.83196 7.33607 8.90651 7.51606C8.98106 7.69604 9.00057 7.89409 8.96256 8.08516C8.92455 8.27624 8.83074 8.45175 8.69299 8.5895C8.55523 8.72726 8.37972 8.82107 8.18865 8.85907C7.99758 8.89708 7.79953 8.87757 7.61954 8.80302C7.43956 8.72847 7.28572 8.60222 7.17749 8.44024C7.06926 8.27825 7.01149 8.08781 7.01149 7.893C7.01149 7.63176 7.11526 7.38122 7.29999 7.1965C7.48471 7.01178 7.73525 6.908 7.99649 6.908ZM3.73499 6.9175C3.9298 6.9175 4.12024 6.97527 4.28222 7.0835C4.44421 7.19174 4.57046 7.34557 4.64501 7.52556C4.71956 7.70554 4.73907 7.90359 4.70106 8.09466C4.66305 8.28573 4.56924 8.46125 4.43149 8.599C4.29373 8.73675 4.11822 8.83057 3.92715 8.86857C3.73608 8.90658 3.53803 8.88707 3.35804 8.81252C3.17806 8.73797 3.02422 8.61172 2.91599 8.44974C2.80776 8.28775 2.74999 8.09731 2.74999 7.9025C2.74999 7.64135 2.85369 7.39089 3.03831 7.20618C3.22292 7.02147 3.47383 6.91763 3.73499 6.9175ZM13.3435 10.4345C13.2941 10.7101 13.1846 10.9715 13.023 11.2001C12.8613 11.4287 12.6514 11.619 12.408 11.7575C11.9031 12.0028 11.3563 12.1504 10.7965 12.1925C10.4805 12.238 10.154 12.285 9.83449 12.364C8.98397 12.6103 8.16254 12.9478 7.38449 13.3705C5.80249 14.156 4.43449 14.8345 3.14849 13.942C2.20499 13.288 2.24849 12.078 2.35849 11.415C2.48791 10.8114 2.70398 10.2297 2.99999 9.688L3.13499 9.4085C3.26945 9.46171 3.41032 9.49701 3.55399 9.5135C3.42621 9.96298 3.46153 10.4432 3.65369 10.8691C3.84585 11.2951 4.18246 11.6393 4.60399 11.841L4.72649 11.904L4.85599 11.8575C5.5787 11.5972 6.23887 11.1884 6.79399 10.6575C7.16108 10.3126 7.48328 9.92289 7.75299 9.4975C8.09855 9.55006 8.45184 9.48948 8.76015 9.3248C9.06846 9.16012 9.31526 8.90016 9.46373 8.58372C9.61219 8.26728 9.65436 7.91132 9.58394 7.56895C9.51352 7.22658 9.33429 6.91616 9.07299 6.684L10.092 4.6235L11.1215 6.7235C10.8286 7.00579 10.6526 7.38796 10.6285 7.79405C10.6044 8.20015 10.734 8.60044 10.9915 8.91538C11.249 9.23032 11.6155 9.43685 12.0183 9.49394C12.4211 9.55102 12.8306 9.45448 13.1655 9.2235C13.3513 9.59804 13.4134 10.0219 13.343 10.434L13.3435 10.4345Z" fill="white"/>
</svg>
