<svg width="20" height="20" viewBox="0 0 20 20" fill="none" xmlns="http://www.w3.org/2000/svg">
<g clip-path="url(#clip0_9_122)">
<path d="M15.3125 0H4.6875C2.09867 0 0 2.09867 0 4.6875V15.3125C0 17.9013 2.09867 20 4.6875 20H15.3125C17.9013 20 20 17.9013 20 15.3125V4.6875C20 2.09867 17.9013 0 15.3125 0Z" fill="#F0DB4F"/>
<path d="M5.25887 16.7134L6.78934 15.7872C7.08465 16.3107 7.35324 16.7537 7.99754 16.7537C8.61512 16.7537 9.00449 16.5121 9.00449 15.5724V9.18196H10.884V15.599C10.884 17.5456 9.74293 18.4317 8.07809 18.4317C6.57457 18.4317 5.70184 17.6531 5.25879 16.7133M11.9049 16.512L13.4352 15.626C13.8381 16.2839 14.3617 16.7672 15.2879 16.7672C16.0668 16.7672 16.5633 16.3778 16.5633 15.8408C16.5633 15.1964 16.0532 14.9681 15.1939 14.5924L14.7242 14.3909C13.3682 13.8137 12.4686 13.0887 12.4686 11.5582C12.4686 10.1485 13.5427 9.07446 15.2209 9.07446C16.4157 9.07446 17.275 9.49071 17.8925 10.5781L16.4291 11.5179C16.1068 10.9406 15.7579 10.7124 15.2209 10.7124C14.6704 10.7124 14.3214 11.0615 14.3214 11.5179C14.3214 12.0817 14.6704 12.31 15.4759 12.6592L15.9457 12.8605C17.5433 13.5452 18.4429 14.2432 18.4429 15.8139C18.4429 17.5056 17.1138 18.4319 15.3282 18.4319C13.583 18.4319 12.4553 17.5995 11.9049 16.512Z" fill="#323330"/>
</g>
<defs>
<clipPath id="clip0_9_122">
<rect width="20" height="20" fill="white"/>
</clipPath>
</defs>
</svg>
