<svg width="18" height="18" viewBox="0 0 18 18" fill="none" xmlns="http://www.w3.org/2000/svg">
<g clip-path="url(#clip0_10_353)">
<path d="M8.90625 0C6.54417 0 4.27883 0.938335 2.60858 2.60858C0.938335 4.27883 0 6.54417 0 8.90625C0 11.2683 0.938335 13.5337 2.60858 15.2039C4.27883 16.8742 6.54417 17.8125 8.90625 17.8125C10.6662 17.809 12.3856 17.2842 13.8475 16.3043L6.54248 6.86616V12.4657H5.34375V5.34375H6.84223L14.7917 15.5837C15.7401 14.7487 16.5 13.7214 17.0208 12.5701C17.5416 11.4188 17.8115 10.1699 17.8125 8.90625C17.8125 6.54417 16.8742 4.27883 15.2039 2.60858C13.5337 0.938335 11.2683 0 8.90625 0ZM11.3801 5.34375H12.5677V12.1314L11.3801 10.572V5.34375Z" fill="black"/>
</g>
<defs>
<clipPath id="clip0_10_353">
<rect width="17.8125" height="17.8125" fill="white"/>
</clipPath>
</defs>
</svg>
