<svg width="16" height="16" viewBox="0 0 16 16" fill="none" xmlns="http://www.w3.org/2000/svg">
<path d="M8.89153 1.05703C7.05013 0.820588 5.19023 1.32532 3.72097 2.4602C2.25172 3.59508 1.29347 5.26713 1.05703 7.10853C0.820588 8.94993 1.32532 10.8098 2.4602 12.2791C3.59508 13.7483 5.26713 14.7066 7.10853 14.943C8.94993 15.1795 10.8098 14.6747 12.2791 13.5399C13.7483 12.405 14.7066 10.7329 14.943 8.89153C15.1795 7.05013 14.6747 5.19023 13.5399 3.72097C12.405 2.25172 10.7329 1.29347 8.89153 1.05703Z" fill="#FF6C37"/>
<path d="M6.06049 8.44255C6.06294 8.44836 6.06749 8.45303 6.07324 8.45563C6.07899 8.45823 6.08551 8.45855 6.09149 8.45655L7.21149 8.21505L6.73999 7.73755L6.06899 8.40905C6.06353 8.41246 6.0596 8.41785 6.05802 8.42409C6.05644 8.43033 6.05732 8.43694 6.06049 8.44255ZM11.305 3.63355C11.149 3.6338 10.995 3.66904 10.8544 3.73667C10.7138 3.8043 10.5902 3.90259 10.4926 4.02432C10.395 4.14604 10.3259 4.2881 10.2905 4.44004C10.2551 4.59198 10.2541 4.74993 10.2878 4.90227C10.3215 5.05461 10.3889 5.19746 10.4851 5.32031C10.5812 5.44316 10.7037 5.54287 10.8436 5.61212C10.9834 5.68137 11.1369 5.71839 11.2929 5.72045C11.4489 5.72252 11.6034 5.68957 11.745 5.62405L11.035 4.91405C11.0187 4.89765 11.0095 4.87544 11.0095 4.8523C11.0095 4.82915 11.0187 4.80695 11.035 4.79055L11.9625 3.86355C11.7759 3.7143 11.5439 3.63316 11.305 3.63355Z" fill="white"/>
<path d="M12.09 3.98401L11.2205 4.85001L11.9025 5.53201C12.0226 5.44739 12.1236 5.33851 12.199 5.21241C12.2744 5.0863 12.3225 4.94578 12.3402 4.79993C12.3578 4.65407 12.3447 4.50613 12.3016 4.36567C12.2585 4.22521 12.1864 4.09486 12.09 3.98401ZM10.3505 5.58201H10.3355C10.3172 5.58201 10.299 5.58368 10.281 5.58701H10.275C10.2555 5.59136 10.2363 5.59687 10.2175 5.60351L10.2025 5.61051C10.1889 5.6169 10.1755 5.62391 10.1625 5.63151L10.147 5.64151C10.1302 5.65351 10.1142 5.66653 10.099 5.68051L7.521 8.25951L7.8405 8.57851L10.5705 6.18251C10.586 6.16899 10.6001 6.15391 10.6125 6.13751L10.624 6.12251C10.6449 6.09082 10.6613 6.05631 10.6725 6.02001C10.6725 6.01201 10.6775 6.00351 10.6795 5.99501C10.6828 5.97764 10.6851 5.96012 10.6865 5.94251V5.88151C10.6865 5.86901 10.6865 5.86501 10.683 5.85651C10.6701 5.79048 10.6379 5.72977 10.5904 5.68207C10.543 5.63436 10.4824 5.6018 10.4165 5.58851H10.403C10.3856 5.58542 10.3681 5.58325 10.3505 5.58201ZM6.861 7.61351L7.39 8.14001L9.975 5.55501C10.0595 5.47251 10.169 5.42151 10.286 5.41001C9.829 5.06001 9.331 5.15151 6.861 7.61351ZM10.716 6.28351L10.6845 6.31451L7.9545 8.70951L8.4185 9.17301C9.5695 8.08451 10.5905 7.04801 10.716 6.28351ZM3.906 11.8955C3.90743 11.9005 3.91036 11.9049 3.91439 11.9081C3.91842 11.9113 3.92335 11.9132 3.9285 11.9135L5.1185 11.9955L4.4515 11.3285L3.9115 11.8675C3.90791 11.8711 3.90552 11.8757 3.90463 11.8807C3.90373 11.8857 3.90438 11.8909 3.9065 11.8955H3.906ZM4.576 11.2045L5.2795 11.908C5.28803 11.9166 5.29918 11.9222 5.31121 11.9238C5.32324 11.9255 5.33547 11.9231 5.346 11.917C5.35696 11.9116 5.3657 11.9026 5.37072 11.8915C5.37574 11.8803 5.37672 11.8678 5.3735 11.856L5.255 11.351C5.24707 11.3182 5.25046 11.2836 5.26461 11.2529C5.27877 11.2223 5.30286 11.1973 5.333 11.182C6.566 10.564 7.561 9.92751 8.291 9.29201L7.801 8.80201L6.751 9.02801L4.576 11.2045ZM7.6505 8.65401L7.3875 8.39101L7.0235 8.75401C7.02085 8.75716 7.0194 8.76114 7.0194 8.76526C7.0194 8.76937 7.02085 8.77336 7.0235 8.77651C7.02523 8.78013 7.02819 8.78302 7.03185 8.78467C7.03551 8.78631 7.03964 8.78661 7.0435 8.78551L7.6505 8.65401Z" fill="white"/>
<path d="M12.1145 4.54853C12.1111 4.53726 12.1053 4.52685 12.0975 4.51804C12.0896 4.50923 12.08 4.50221 12.0692 4.49748C12.0585 4.49274 12.0468 4.4904 12.035 4.49061C12.0232 4.49083 12.0116 4.49359 12.001 4.49871C11.9904 4.50383 11.9811 4.51118 11.9736 4.52027C11.9661 4.52936 11.9607 4.53996 11.9577 4.55135C11.9547 4.56274 11.9542 4.57464 11.9562 4.58623C11.9582 4.59783 11.9628 4.60885 11.9695 4.61853C11.9902 4.66064 11.9984 4.7078 11.9931 4.75443C11.9877 4.80105 11.9691 4.84517 11.9395 4.88153C11.9258 4.8981 11.9192 4.91945 11.9212 4.94088C11.9232 4.9623 11.9337 4.98205 11.9502 4.99578C11.9668 5.0095 11.9882 5.01608 12.0096 5.01406C12.031 5.01205 12.0508 5.0016 12.0645 4.98503C12.1139 4.92479 12.1449 4.85157 12.1538 4.77415C12.1627 4.69672 12.149 4.61838 12.1145 4.54853Z" fill="#FF6C37"/>
</svg>
