<svg width="36" height="36" viewBox="0 0 36 36" fill="none" xmlns="http://www.w3.org/2000/svg">
<g clip-path="url(#clip0_11_31)">
<path d="M17.8476 0.0101318C8.73056 0.0101318 9.29981 3.9638 9.29981 3.9638L9.30993 8.05993H18.0101V9.28969H5.85435C5.85435 9.28969 0.0203857 8.62805 0.0203857 17.827C0.0203857 27.0263 5.11242 26.7001 5.11242 26.7001H8.15132V22.4312C8.15132 22.4312 7.9875 17.3392 13.1621 17.3392H21.7911C21.7911 17.3392 26.6392 17.4175 26.6392 12.6537V4.77704C26.6392 4.77704 27.3755 0.0101318 17.8476 0.0101318ZM13.0503 2.76469C13.2559 2.76451 13.4595 2.80487 13.6495 2.88346C13.8394 2.96205 14.012 3.07733 14.1574 3.22271C14.3028 3.36808 14.4181 3.5407 14.4967 3.73067C14.5753 3.92065 14.6156 4.12426 14.6154 4.32985C14.6156 4.53544 14.5753 4.73905 14.4967 4.92903C14.4181 5.11901 14.3028 5.29162 14.1574 5.437C14.012 5.58237 13.8394 5.69765 13.6495 5.77624C13.4595 5.85483 13.2559 5.89519 13.0503 5.89501C12.8447 5.89519 12.6411 5.85483 12.4511 5.77624C12.2611 5.69765 12.0885 5.58237 11.9431 5.437C11.7978 5.29162 11.6825 5.11901 11.6039 4.92903C11.5253 4.73905 11.4849 4.53544 11.4851 4.32985C11.4849 4.12426 11.5253 3.92065 11.6039 3.73067C11.6825 3.5407 11.7978 3.36808 11.9431 3.22271C12.0885 3.07733 12.2611 2.96205 12.4511 2.88346C12.6411 2.80487 12.8447 2.76451 13.0503 2.76469Z" fill="url(#paint0_linear_11_31)"/>
<path d="M18.1064 35.7365C27.2234 35.7365 26.6542 31.7828 26.6542 31.7828L26.6441 27.6869H17.9437V26.4571H30.0995C30.0995 26.4571 35.9335 27.1187 35.9335 17.9195C35.9335 8.72035 30.8414 9.0466 30.8414 9.0466H27.8025V13.3153C27.8025 13.3153 27.9664 18.4073 22.7918 18.4073H14.1627C14.1627 18.4073 9.3147 18.329 9.3147 23.0929V30.9698C9.3147 30.9698 8.57853 35.7365 18.1063 35.7365M22.9036 32.9822C22.698 32.9824 22.4944 32.9421 22.3044 32.8635C22.1144 32.7849 21.9418 32.6696 21.7964 32.5242C21.6511 32.3789 21.5358 32.2062 21.4572 32.0163C21.3786 31.8263 21.3382 31.6227 21.3384 31.4171C21.3382 31.2115 21.3786 31.0079 21.4571 30.8179C21.5357 30.6279 21.651 30.4552 21.7964 30.3098C21.9418 30.1645 22.1144 30.0492 22.3044 29.9706C22.4944 29.892 22.698 29.8516 22.9036 29.8518C23.1092 29.8516 23.3128 29.892 23.5028 29.9705C23.6927 30.0491 23.8653 30.1644 24.0107 30.3098C24.1561 30.4552 24.2714 30.6278 24.35 30.8178C24.4286 31.0077 24.4689 31.2113 24.4687 31.4169C24.4689 31.6225 24.4286 31.8261 24.35 32.0161C24.2714 32.2061 24.1561 32.3787 24.0107 32.5241C23.8653 32.6695 23.6927 32.7847 23.5028 32.8633C23.3128 32.9419 23.1092 32.9824 22.9036 32.9822Z" fill="url(#paint1_linear_11_31)"/>
</g>
<defs>
<linearGradient id="paint0_linear_11_31" x1="345.144" y1="321.347" x2="2124.89" y2="2083.34" gradientUnits="userSpaceOnUse">
<stop stop-color="#387EB8"/>
<stop offset="1" stop-color="#366994"/>
</linearGradient>
<linearGradient id="paint1_linear_11_31" x1="518.718" y1="558.327" x2="2429.96" y2="2365.08" gradientUnits="userSpaceOnUse">
<stop stop-color="#FFE052"/>
<stop offset="1" stop-color="#FFC331"/>
</linearGradient>
<clipPath id="clip0_11_31">
<rect width="36" height="35.8594" fill="white"/>
</clipPath>
</defs>
</svg>
