<svg width="20" height="18" viewBox="0 0 20 18" fill="none" xmlns="http://www.w3.org/2000/svg">
<g clip-path="url(#clip0_9_111)">
<path d="M16.444 5.76749C16.2311 5.69448 16.0165 5.62682 15.8002 5.5646C15.8366 5.41616 15.87 5.26952 15.8997 5.12546C16.387 2.75975 16.0684 0.853893 14.9802 0.226393C13.9369 -0.37517 12.2305 0.252096 10.5073 1.75186C10.3374 1.89993 10.1714 2.05227 10.0092 2.20874C9.90067 2.1047 9.79021 2.00267 9.67789 1.90272C7.8718 0.299127 6.06148 -0.376732 4.97445 0.252565C3.93203 0.856002 3.62336 2.64764 4.06211 4.88967C4.10576 5.11172 4.15505 5.33263 4.20992 5.55217C3.95367 5.62499 3.70641 5.70249 3.46977 5.78499C1.35227 6.52327 0 7.68022 0 8.8803C0 10.1198 1.45172 11.363 3.65719 12.1168C3.83599 12.1776 4.01628 12.234 4.19789 12.2859C4.13893 12.5224 4.08657 12.7604 4.04086 12.9998C3.62258 15.203 3.94922 16.9523 4.98883 17.5519C6.06258 18.1711 7.86477 17.5347 9.61953 16.0007C9.76181 15.876 9.90097 15.7477 10.0369 15.6161C10.2125 15.7855 10.3927 15.95 10.5775 16.1094C12.2773 17.572 13.9561 18.1626 14.9947 17.5614C16.0674 16.9404 16.4161 15.0612 15.9634 12.7748C15.9278 12.5957 15.8878 12.4175 15.8435 12.2403C15.9701 12.2028 16.0943 12.1642 16.2154 12.1241C18.5082 11.3644 20 10.1363 20 8.8803C20 7.67585 18.6041 6.51108 16.444 5.76749ZM15.9467 11.3131C15.8372 11.3493 15.7253 11.3843 15.6108 11.4182C15.3577 10.6169 15.0161 9.76483 14.598 8.88444C14.997 8.02506 15.3254 7.18389 15.5714 6.3878C15.776 6.44702 15.9745 6.50944 16.1659 6.5753C18.0167 7.21249 19.1456 8.15444 19.1456 8.8803C19.1456 9.65342 17.9264 10.6571 15.9467 11.3131ZM15.1253 12.9408C15.3255 13.9517 15.354 14.8658 15.2214 15.5804C15.1023 16.2225 14.8628 16.6505 14.5666 16.822C13.9363 17.1869 12.5884 16.7126 11.1348 15.4617C10.9629 15.3135 10.7952 15.1606 10.6319 15.0031C11.1955 14.3868 11.7587 13.6703 12.3084 12.8745C13.2752 12.7887 14.1887 12.6484 15.017 12.4569C15.0579 12.6216 15.094 12.7829 15.1253 12.9408ZM6.81844 16.759C6.20266 16.9764 5.71219 16.9826 5.4157 16.8117C4.78484 16.4479 4.52258 15.0433 4.88031 13.1592C4.92284 12.9366 4.97153 12.7152 5.02633 12.4952C5.84555 12.6765 6.75234 12.8068 7.72148 12.8854C8.27492 13.664 8.85437 14.3798 9.43836 15.0065C9.31425 15.1266 9.1872 15.2436 9.05734 15.3574C8.28133 16.0357 7.50375 16.5169 6.81844 16.759ZM3.93359 11.3083C2.95836 10.975 2.15297 10.5418 1.60094 10.069C1.10484 9.64428 0.854453 9.22249 0.854453 8.8803C0.854453 8.15202 1.94016 7.22311 3.75102 6.59178C3.97078 6.51522 4.20078 6.44296 4.43945 6.37514C4.68977 7.1892 5.01805 8.04038 5.41422 8.90108C5.01289 9.77452 4.67992 10.6393 4.42719 11.463C4.26142 11.4155 4.09684 11.3639 3.93359 11.3083ZM4.90063 4.72553C4.52477 2.80467 4.77437 1.35569 5.40258 0.992018C6.07164 0.604674 7.55117 1.15694 9.11062 2.54163C9.21232 2.63212 9.31236 2.72445 9.4107 2.81858C8.82961 3.44256 8.25547 4.15296 7.70695 4.92702C6.76633 5.0142 5.86594 5.1542 5.03813 5.34178C4.98711 5.13758 4.94126 4.93205 4.90063 4.72553ZM13.5277 6.85592C13.3322 6.51819 13.1294 6.1847 12.9195 5.85569C13.5577 5.93639 14.1691 6.0435 14.7432 6.17444C14.5709 6.72694 14.356 7.30452 14.1031 7.89671C13.9183 7.54598 13.7264 7.19898 13.5277 6.85592ZM10.0096 3.42928C10.4037 3.85624 10.7984 4.33288 11.1866 4.85006C10.3991 4.81287 9.61025 4.81271 8.82273 4.8496C9.21133 4.33717 9.60938 3.86116 10.0096 3.42928ZM6.46891 6.86171C6.27268 7.202 6.08442 7.54684 5.9043 7.89592C5.65555 7.30585 5.44266 6.72561 5.26883 6.1653C5.83945 6.03764 6.44797 5.93327 7.08203 5.85405C6.86981 6.18507 6.66538 6.5211 6.46891 6.86171ZM7.10023 11.9673C6.44516 11.8941 5.8275 11.7951 5.25703 11.6709C5.43359 11.1006 5.65117 10.508 5.90531 9.9053C6.08615 10.2546 6.27519 10.5997 6.47227 10.9401C6.67492 11.2901 6.88477 11.633 7.10023 11.9673ZM10.0332 14.3915C9.6282 13.9546 9.2243 13.4712 8.82984 12.9514C9.21281 12.9664 9.6032 12.974 10 12.974C10.4077 12.974 10.8106 12.9649 11.2073 12.9473C10.8178 13.4765 10.4246 13.9605 10.0332 14.3915ZM14.1112 9.87452C14.3785 10.4839 14.6038 11.0733 14.7827 11.6339C14.2029 11.7662 13.5768 11.8728 12.9171 11.9519C13.1285 11.6168 13.3332 11.2775 13.5311 10.9343C13.7323 10.5854 13.9257 10.232 14.1112 9.87452ZM12.791 10.5074C12.488 11.0337 12.1681 11.55 11.8316 12.0555C11.222 12.0987 10.6111 12.1201 10 12.1198C9.37758 12.1198 8.77219 12.1004 8.18922 12.0626C7.84391 11.5583 7.51782 11.0411 7.21164 10.5121C6.90686 9.98595 6.62228 9.4484 6.35836 8.90061C6.62162 8.3527 6.90541 7.8149 7.20914 7.28835L7.20906 7.28842C7.51264 6.76171 7.83612 6.24673 8.17883 5.7446C8.77359 5.6996 9.38352 5.67616 9.99992 5.67616C10.6191 5.67616 11.2299 5.69983 11.8245 5.74514C12.1638 6.24652 12.4852 6.75974 12.7882 7.28381C13.0929 7.80923 13.3804 8.34441 13.6504 8.8885C13.3832 9.43815 13.0966 9.97813 12.791 10.5074ZM14.5535 0.966471C15.2232 1.35272 15.4837 2.9103 15.0629 4.95288C15.0359 5.08329 15.006 5.21585 14.973 5.35053C14.1432 5.15897 13.2422 5.01655 12.2988 4.92803C11.7493 4.14545 11.1798 3.43397 10.6082 2.81803C10.758 2.67362 10.9114 2.53296 11.0682 2.39616C12.5448 1.11124 13.9248 0.603893 14.5535 0.966471ZM10 7.09436C10.9863 7.09436 11.7859 7.89397 11.7859 8.8803C11.7859 9.86663 10.9863 10.6662 10 10.6662C9.01367 10.6662 8.21406 9.86663 8.21406 8.8803C8.21406 7.89397 9.01367 7.09436 10 7.09436Z" fill="#00D8FF"/>
</g>
<defs>
<clipPath id="clip0_9_111">
<rect width="20" height="17.8125" fill="white"/>
</clipPath>
</defs>
</svg>
