<svg width="20" height="20" viewBox="0 0 20 20" fill="none" xmlns="http://www.w3.org/2000/svg">
<g clip-path="url(#clip0_10_231)">
<path d="M14.2417 7.38495C14.1408 6.85964 13.8752 6.38013 13.4833 6.01601C13.0915 5.65189 12.5938 5.42209 12.0625 5.35995L11.8584 5.33495C11.5243 5.29296 11.217 5.13056 10.9941 4.8782C10.7712 4.62583 10.6479 4.30083 10.6475 3.96412V3.25078C11.0068 3.10158 11.3037 2.83298 11.4879 2.49032C11.6721 2.14766 11.7325 1.75192 11.6588 1.36991C11.5851 0.987905 11.3819 0.643018 11.0834 0.393467C10.785 0.143917 10.4095 0.00498847 10.0205 0.000131785C9.63149 -0.0047249 9.25271 0.124788 8.9481 0.366809C8.64349 0.60883 8.43171 0.948537 8.34851 1.32859C8.26531 1.70864 8.31578 2.10576 8.49141 2.45291C8.66704 2.80006 8.95707 3.07599 9.31253 3.23412V3.96245C9.31282 4.62453 9.55465 5.26377 9.99267 5.76025C10.4307 6.25672 11.0348 6.57633 11.6917 6.65912L11.8959 6.68578C12.5325 6.76578 12.8492 7.23578 12.9342 7.64828C13.0175 8.06078 12.9092 8.61745 12.3525 8.93995C12.083 9.09561 11.7832 9.1914 11.4734 9.22078L8.4067 9.50912C7.90446 9.55632 7.41836 9.71153 6.9817 9.96412C6.5156 10.2276 6.14566 10.6328 5.92566 11.1209C5.70565 11.609 5.64705 12.1546 5.75837 12.6783C5.85925 13.2036 6.12488 13.6831 6.51673 14.0472C6.90857 14.4113 7.40624 14.6411 7.93753 14.7033L8.1417 14.7299C8.47564 14.7719 8.78283 14.9342 9.00572 15.1864C9.22861 15.4386 9.35192 15.7634 9.35253 16.0999V16.7474C8.99312 16.8976 8.69653 17.1671 8.51282 17.5106C8.32911 17.854 8.26955 18.2503 8.3442 18.6326C8.41884 19.0149 8.62311 19.3597 8.92252 19.6088C9.22193 19.858 9.59814 19.9961 9.98761 20C10.3771 20.0039 10.756 19.8733 11.0603 19.6302C11.3646 19.3871 11.5758 19.0464 11.658 18.6657C11.7403 18.285 11.6886 17.8876 11.5118 17.5405C11.335 17.1935 11.0439 16.918 10.6875 16.7608V16.0999C10.6872 15.4377 10.4453 14.7984 10.0071 14.3019C9.56889 13.8054 8.96457 13.4859 8.30753 13.4033L8.1042 13.3766C7.46753 13.2966 7.15003 12.8266 7.06587 12.4141C6.9817 12.0016 7.09087 11.445 7.6467 11.1224C7.91669 10.9666 8.21714 10.8708 8.52753 10.8416L11.5942 10.5541C12.0964 10.5069 12.5825 10.3517 13.0192 10.0991C13.4853 9.8355 13.8552 9.43008 14.075 8.94181C14.2949 8.45353 14.3533 7.90785 14.2417 7.38412V7.38495ZM12.0309 11.3083C11.9104 11.3294 11.7892 11.3461 11.6675 11.3583L10.3817 11.4808L11.99 13.2466C12.4761 13.7797 12.7454 14.4752 12.745 15.1966H14.0834C14.0839 14.1421 13.69 13.1255 12.9792 12.3466L12.0309 11.3083ZM7.8617 8.71662C8.01202 8.68604 8.16392 8.66378 8.3167 8.64995L9.50587 8.53662L7.89087 6.76662C7.40507 6.23343 7.13608 5.53793 7.1367 4.81662H5.80253C5.80253 5.87245 6.1942 6.88578 6.90587 7.66662L7.8617 8.71662Z" fill="#764ABC"/>
</g>
<defs>
<clipPath id="clip0_10_231">
<rect width="20" height="20" fill="white"/>
</clipPath>
</defs>
</svg>
