<svg width="20" height="20" viewBox="0 0 20 20" fill="none" xmlns="http://www.w3.org/2000/svg">
<g clip-path="url(#clip0_9_126)">
<path d="M13.8579 13.7672C12.4516 16.6422 9.98912 18.5765 6.73131 19.2125C6.23181 19.3349 5.71902 19.3947 5.20475 19.3906C3.32975 19.3906 1.611 18.6094 0.776621 17.3297C-0.343691 15.625 -0.724941 12.0109 2.96881 9.33747C3.04381 9.74529 3.19693 10.3047 3.2985 10.6359C2.57339 11.1746 1.97987 11.8707 1.56256 12.6719C0.875059 14.0219 0.951621 15.3703 1.76568 16.6172C2.32818 17.4578 3.21881 17.9687 4.36412 18.125C5.79465 18.306 7.24589 18.0327 8.51256 17.3437C10.4985 16.3 11.8219 15.0531 12.6876 13.3484C12.4428 13.0955 12.2979 12.7624 12.2797 12.4109C12.2667 12.0337 12.4038 11.6667 12.661 11.3905C12.9182 11.1142 13.2744 10.9513 13.6516 10.9375H13.7047C14.0716 10.9356 14.4252 11.0749 14.6922 11.3265C14.9593 11.578 15.1194 11.9226 15.1395 12.2889C15.1595 12.6552 15.038 13.0153 14.8 13.2945C14.5621 13.5737 14.2259 13.7508 13.861 13.789L13.8579 13.7672ZM18.3376 10.6109C20.2454 12.7734 20.2969 15.3187 19.5594 16.7953C18.8719 18.1437 17.0594 19.4937 14.6219 19.4937C13.4841 19.4704 12.3647 19.2012 11.3407 18.7047C11.6985 18.45 12.2063 18.0422 12.486 17.7875C13.2756 18.1297 14.1255 18.3114 14.986 18.3219C16.5641 18.3219 17.7594 17.5844 18.4719 16.2359C18.9297 15.3453 18.9563 14.3015 18.5235 13.2328C17.9925 11.888 17.0474 10.7471 15.8251 9.97498C14.2214 8.89395 12.3309 8.31766 10.3969 8.32029H9.93912C9.83237 8.56689 9.6587 8.77868 9.43778 8.93166C9.21686 9.08465 8.95752 9.17272 8.68912 9.18591H8.64068C8.26946 9.18135 7.91464 9.03225 7.65158 8.77028C7.38852 8.50831 7.23795 8.15411 7.23185 7.78291C7.22575 7.4117 7.36459 7.05274 7.6189 6.78227C7.87321 6.51179 8.22293 6.35111 8.59381 6.33435H8.64537C8.90382 6.33454 9.15721 6.40596 9.37773 6.54075C9.59824 6.67554 9.77735 6.86849 9.89537 7.09841H10.3032C13.5532 7.09841 16.4063 8.34529 18.3376 10.6109ZM5.40787 14.2047C5.38099 13.9452 5.44386 13.6843 5.586 13.4656C4.161 10.9969 3.3985 7.86716 4.56881 4.60935C5.40787 2.16091 7.52037 0.506226 9.811 0.506226C12.2547 0.506226 14.8001 2.64529 15.1047 6.76716C14.7235 6.6406 14.1672 6.45466 13.8329 6.38591C13.7501 5.03748 12.611 1.6781 9.91256 1.7281C8.94537 1.75466 7.52037 2.21248 6.78756 3.1531C5.88119 4.276 5.35388 5.65718 5.28131 7.09841C5.10943 9.07463 5.5731 11.0541 6.60475 12.7484C6.66169 12.7276 6.7224 12.7191 6.78287 12.7234H6.83287C7.2108 12.7166 7.57598 12.8602 7.84805 13.1226C8.12012 13.385 8.27681 13.7447 8.28365 14.1226C8.29049 14.5006 8.14691 14.8657 7.88451 15.1378C7.62211 15.4099 7.26237 15.5666 6.88443 15.5734H6.83287C6.46417 15.5721 6.11019 15.4286 5.84472 15.1727C5.57925 14.9168 5.42276 14.5684 5.40787 14.2V14.2047Z" fill="#764ABC"/>
</g>
<defs>
<clipPath id="clip0_9_126">
<rect width="20" height="20" fill="white"/>
</clipPath>
</defs>
</svg>
