<svg width="20" height="20" viewBox="0 0 20 20" fill="none" xmlns="http://www.w3.org/2000/svg">
<g clip-path="url(#clip0_9_128)">
<path d="M15.475 7.86174C14.9053 7.68236 14.6112 7.74283 14.0139 7.67736C13.0904 7.57658 12.7225 7.21502 12.5664 6.2847C12.479 5.76533 12.5822 5.00486 12.3592 4.53408C11.9328 3.63627 10.935 3.23361 9.93263 3.46345C9.08622 3.65783 8.382 4.50502 8.34294 5.3747C8.29841 6.36767 8.86325 7.21502 9.8331 7.50752C10.294 7.64658 10.7836 7.71658 11.2648 7.75205C12.1475 7.81658 12.2153 8.30799 12.4539 8.71252C12.6045 8.96752 12.7503 9.21877 12.7503 9.97924C12.7503 10.7397 12.6036 10.9908 12.454 11.2458C12.2153 11.6494 11.9208 11.9138 11.0381 11.9791C10.5568 12.0147 10.0662 12.0847 9.60653 12.2239C8.63653 12.5172 8.07169 13.3635 8.11622 14.3566C8.15528 15.2263 8.8595 16.0735 9.70591 16.2678C10.7083 16.4985 11.7061 16.095 12.1325 15.1972C12.3564 14.7264 12.479 14.193 12.5664 13.6738C12.7234 12.7433 13.0914 12.3817 14.0139 12.2808C14.6112 12.2155 15.2295 12.2808 15.7893 11.9624C16.3808 11.5295 16.9093 10.8795 16.9093 9.97924C16.9093 9.07861 16.3398 8.13455 15.475 7.86174Z" fill="#F44250"/>
<path d="M6.00001 12.0895C4.83594 12.0895 3.88626 11.1367 3.88626 9.96841C3.88626 8.80013 4.83579 7.84747 5.99985 7.84747C7.16391 7.84747 8.1136 8.80029 8.1136 9.96841C8.1136 11.1356 7.16313 12.0895 5.99985 12.0895H6.00001ZM2.10626 16.4C0.943756 16.3972 -0.00280625 15.4406 6.25136e-06 14.2714C0.00281875 13.1042 0.9561 12.1542 2.1211 12.1579C3.28422 12.1608 4.23094 13.1173 4.22735 14.2864C4.22454 15.4526 3.2711 16.4028 2.10626 16.4ZM17.8113 16.4C16.6453 16.4064 15.6884 15.4601 15.6817 14.2948C15.6753 13.1248 16.6183 12.1645 17.7795 12.1579C18.9455 12.1514 19.9025 13.0976 19.9091 14.2629C19.9155 15.432 18.9725 16.3934 17.8113 16.4Z" fill="#121212"/>
</g>
<defs>
<clipPath id="clip0_9_128">
<rect width="20" height="20" fill="white"/>
</clipPath>
</defs>
</svg>
