<svg width="16" height="16" viewBox="0 0 16 16" fill="none" xmlns="http://www.w3.org/2000/svg">
<g clip-path="url(#clip0_30_2)">
<path d="M0 0H16V16H0V0Z" fill="url(#paint0_linear_30_2)"/>
<path d="M9.7384 8.13582C9.88628 8.27245 9.96023 8.45566 9.96028 8.68545C9.96028 8.93557 9.87032 9.13526 9.6904 9.28451C9.5104 9.43393 9.26867 9.50862 8.96521 9.50857C8.72538 9.50849 8.48805 9.45741 8.25321 9.35532V9.04901C8.53138 9.14097 8.76871 9.18691 8.96521 9.18682C9.15917 9.18682 9.30844 9.14349 9.41303 9.05682C9.51761 8.96995 9.56988 8.84616 9.56984 8.68545C9.56984 8.37657 9.37484 8.22207 8.98421 8.22207C8.86184 8.22212 8.74065 8.22845 8.62065 8.24107V7.98857L9.42465 7.1117H8.29165V6.79776H9.8494V7.10026L9.06084 7.93495C9.07384 7.93239 9.08621 7.9312 9.09921 7.9312H9.1374C9.39015 7.9312 9.59048 7.99941 9.7384 8.13582ZM7.51484 8.06901C7.67025 8.21451 7.74798 8.4148 7.74803 8.66989C7.74803 8.92014 7.65765 9.12239 7.47621 9.27689C7.29503 9.43132 7.05665 9.50857 6.76059 9.50857C6.50055 9.50849 6.2569 9.45741 6.02965 9.35532V9.04901C6.31282 9.14097 6.55521 9.18691 6.75684 9.18682C6.95084 9.18682 7.0994 9.14307 7.20265 9.05482C7.30603 8.96676 7.35784 8.83995 7.35784 8.67389C7.3578 8.49264 7.30926 8.36118 7.21221 8.27951C7.11521 8.19785 6.95703 8.15697 6.73765 8.15689C6.5794 8.15689 6.38184 8.16989 6.1444 8.19526V7.94257L6.21721 6.79776H7.61421V7.11164H6.53859L6.48884 7.88895C6.62917 7.86353 6.75542 7.8508 6.86759 7.85076C7.14325 7.85072 7.359 7.92347 7.51484 8.06901ZM10.3914 10.8755C9.42065 11.0499 8.5704 11.4453 8.00003 11.7674C7.4294 11.4453 6.57921 11.0499 5.60865 10.8755C5.3354 10.8265 3.97384 10.5422 3.97384 9.75507C3.97384 9.39032 4.10446 9.14845 4.35521 8.71645C4.65484 8.19989 5.02765 7.55682 5.02765 6.63107C5.02765 5.96945 4.85421 5.33495 4.51184 4.74295C4.55203 4.69332 4.59303 4.64314 4.63421 4.59251C5.1414 4.84601 5.6694 4.97439 6.20621 4.97439C6.86221 4.97439 7.46503 4.8022 8.00003 4.46226C8.53484 4.8022 9.13765 4.97445 9.79365 4.97445C10.3304 4.97445 10.8587 4.84601 11.3658 4.59251C11.4068 4.64314 11.4478 4.69332 11.488 4.74295C11.1457 5.33495 10.9722 5.96945 10.9722 6.63107C10.9722 7.55682 11.345 8.19982 11.6452 8.71732C11.8954 9.14845 12.026 9.39032 12.026 9.75507C12.026 10.5422 10.6644 10.8265 10.3914 10.8755ZM11.3722 6.63107C11.3722 5.99945 11.5504 5.39401 11.9014 4.83157C11.9237 4.79619 11.9342 4.7547 11.9316 4.71298C11.929 4.67125 11.9133 4.63141 11.8868 4.59907C11.782 4.47076 11.6775 4.34218 11.5734 4.21332C11.5439 4.17678 11.5024 4.1518 11.4563 4.14277C11.4102 4.13375 11.3624 4.14124 11.3212 4.16395C10.8287 4.43626 10.3148 4.57426 9.79365 4.57426C9.16484 4.57426 8.6154 4.4052 8.11384 4.0577C8.08038 4.03452 8.04064 4.02209 7.99993 4.02209C7.95922 4.02209 7.91949 4.03452 7.88603 4.0577C7.3844 4.4052 6.83503 4.57426 6.20621 4.57426C5.68503 4.57426 5.17121 4.43626 4.67865 4.16395C4.63751 4.14123 4.58967 4.13372 4.54354 4.14275C4.49742 4.15178 4.45594 4.17676 4.4264 4.21332C4.32229 4.34219 4.21783 4.47077 4.11303 4.59907C4.08652 4.6314 4.07085 4.67124 4.06822 4.71297C4.0656 4.75469 4.07616 4.79618 4.0984 4.83157C4.44965 5.39401 4.62765 5.99945 4.62765 6.63107C4.62765 7.4492 4.28465 8.04045 4.00903 8.5162C3.73903 8.98076 3.57384 9.28932 3.57384 9.75507C3.57384 10.8329 5.07703 11.1868 5.53784 11.2694C6.50984 11.4441 7.35865 11.8561 7.8994 12.1708C7.92993 12.1887 7.96466 12.1981 8.00003 12.1981C8.03539 12.1981 8.07012 12.1887 8.10065 12.1708C8.6414 11.8561 9.49003 11.4441 10.462 11.2694C10.9228 11.1868 12.426 10.8329 12.426 9.75507C12.426 9.28932 12.2608 8.98076 11.9908 8.51557C11.7152 8.04039 11.3722 7.4492 11.3722 6.63107ZM10.5988 12.0313C9.37259 12.2518 8.34465 12.9113 8.00003 13.1528C7.65521 12.9113 6.62721 12.2518 5.40103 12.0313C2.9874 11.5978 2.80003 10.1794 2.80003 9.75507C2.80003 9.05695 3.07421 8.58464 3.3394 8.12745C3.59221 7.69182 3.85365 7.24132 3.85365 6.63107C3.85365 5.66707 3.29703 4.98626 3.0224 4.70914C3.31121 4.35782 4.04084 3.46826 4.40065 3.0047C4.94584 3.51926 5.57965 3.79995 6.20628 3.79995C6.90184 3.79995 7.47703 3.51682 8.00003 2.91276C8.52284 3.51682 9.09803 3.79995 9.79365 3.79995C10.4202 3.79995 11.054 3.5192 11.5994 3.00464C11.9592 3.4682 12.6887 4.35776 12.9774 4.70907C12.7028 4.9862 12.1462 5.66701 12.1462 6.63101C12.1462 7.24126 12.4078 7.69182 12.6604 8.12739C12.9258 8.58457 13.2 9.05695 13.2 9.75501C13.2 10.1794 13.0124 11.5977 10.5988 12.0313M13.0064 7.9267C12.7594 7.50095 12.5462 7.13339 12.5462 6.63101C12.5462 5.57339 13.3694 4.88932 13.3775 4.88289C13.4189 4.84917 13.4453 4.8004 13.4508 4.74726C13.4535 4.72094 13.4509 4.69436 13.4432 4.66905C13.4355 4.64375 13.4229 4.62022 13.406 4.59982C13.3927 4.58382 12.0817 2.99439 11.7812 2.58264C11.7639 2.55885 11.7415 2.53918 11.7157 2.52504C11.6898 2.51089 11.6612 2.50263 11.6318 2.50082C11.6024 2.49882 11.573 2.50343 11.5456 2.51434C11.5182 2.52524 11.4936 2.54215 11.4737 2.56382C10.9697 3.10289 10.3732 3.39976 9.79365 3.39976C9.15284 3.39976 8.64884 3.11426 8.15884 2.47401C8.08303 2.3752 7.91703 2.3752 7.84121 2.47401C7.35103 3.11426 6.84703 3.39976 6.20621 3.39976C5.62665 3.39976 5.03021 3.10289 4.52621 2.56382C4.4854 2.52026 4.42746 2.49545 4.36803 2.50082C4.33864 2.50263 4.31001 2.51091 4.28419 2.52506C4.25836 2.53922 4.23599 2.5589 4.21865 2.5827C3.91815 2.99439 2.60721 4.58382 2.59378 4.59982C2.57703 4.62023 2.56449 4.64374 2.55687 4.66901C2.54925 4.69429 2.54671 4.72082 2.5494 4.74707C2.55459 4.80014 2.58078 4.84895 2.62196 4.88251C2.63034 4.88939 3.45359 5.57339 3.45359 6.63101C3.45359 7.13339 3.24034 7.50095 2.99334 7.9267C2.71521 8.40607 2.39996 8.94932 2.39996 9.75501C2.39996 11.0973 3.49534 12.0955 5.33034 12.4253C6.71178 12.6735 7.86678 13.5496 7.87815 13.5587C7.91312 13.5855 7.95595 13.6 8.00001 13.5999C8.04406 13.5999 8.08686 13.5853 8.12178 13.5584C8.13334 13.5497 9.28434 12.6741 10.6693 12.4253C12.5043 12.0955 13.6 11.0973 13.6 9.75501C13.6 8.94932 13.2846 8.40607 13.0063 7.9267" fill="white"/>
</g>
<defs>
<linearGradient id="paint0_linear_30_2" x1="0" y1="1600" x2="1600" y2="0" gradientUnits="userSpaceOnUse">
<stop stop-color="#4D27A8"/>
<stop offset="1" stop-color="#A166FF"/>
</linearGradient>
<clipPath id="clip0_30_2">
<rect width="16" height="16" fill="white"/>
</clipPath>
</defs>
</svg>
