<svg width="16" height="16" viewBox="0 0 16 16" fill="none" xmlns="http://www.w3.org/2000/svg">
<g clip-path="url(#clip0_13_21)">
<path d="M3.40686 10.0899C3.40686 11.0062 2.65961 11.7545 1.74324 11.7545C0.82686 11.7545 0.0787354 11.0062 0.0787354 10.0899C0.0787354 9.17367 0.82711 8.42529 1.74336 8.42529H3.40699L3.40686 10.0899ZM4.24549 10.0899C4.24549 9.17367 4.99386 8.42529 5.91011 8.42529C6.82636 8.42529 7.57474 9.17354 7.57474 10.0899V14.2568C7.57474 15.173 6.82648 15.9214 5.91011 15.9214C4.99386 15.9214 4.24549 15.173 4.24549 14.2568V10.0899Z" fill="#DE1C59"/>
<path d="M5.91011 3.40686C4.99386 3.40686 4.24549 2.65961 4.24549 1.74324C4.24549 0.82686 4.99386 0.0787354 5.91011 0.0787354C6.82636 0.0787354 7.57474 0.82711 7.57474 1.74336V3.40699L5.91011 3.40686ZM5.91011 4.24549C6.82636 4.24549 7.57474 4.99386 7.57474 5.91011C7.57474 6.82636 6.82648 7.57474 5.91011 7.57474H1.74324C0.826985 7.57474 0.0787354 6.82648 0.0787354 5.91011C0.0787354 4.99386 0.82711 4.24549 1.74336 4.24549H5.91011Z" fill="#35C5F0"/>
<path d="M12.5931 5.91011C12.5931 4.99386 13.3404 4.24549 14.2567 4.24549C15.1731 4.24549 15.9214 4.99386 15.9214 5.91011C15.9214 6.82636 15.173 7.57474 14.2567 7.57474H12.5931V5.91011ZM11.7545 5.91011C11.7545 6.82636 11.0061 7.57474 10.0899 7.57474C9.17361 7.57474 8.42523 6.82648 8.42523 5.91011V1.74324C8.42523 0.826985 9.17348 0.0787354 10.0899 0.0787354C11.0061 0.0787354 11.7545 0.82711 11.7545 1.74336V5.91011Z" fill="#2EB57D"/>
<path d="M10.0899 12.5932C11.0061 12.5932 11.7545 13.3404 11.7545 14.2568C11.7545 15.1732 11.0061 15.9214 10.0899 15.9214C9.17361 15.9214 8.42523 15.173 8.42523 14.2568V12.5932H10.0899ZM10.0899 11.7545C9.17361 11.7545 8.42523 11.0062 8.42523 10.0899C8.42523 9.17367 9.17348 8.42529 10.0899 8.42529H14.2567C15.173 8.42529 15.9214 9.17354 15.9214 10.0899C15.9214 11.0062 15.173 11.7545 14.2567 11.7545H10.0899Z" fill="#EBB02E"/>
</g>
<defs>
<clipPath id="clip0_13_21">
<rect width="16" height="16" fill="white"/>
</clipPath>
</defs>
</svg>
