<svg width="16" height="16" viewBox="0 0 16 16" fill="none" xmlns="http://www.w3.org/2000/svg">
<path d="M13.4182 0.251536L12.5539 0.305411L12.6213 2.10254C12.6248 2.20191 12.5102 2.25991 12.4321 2.19829L11.8533 1.74204L11.1677 2.26229C11.15 2.27569 11.1289 2.2838 11.1068 2.28565C11.0847 2.2875 11.0626 2.28303 11.0429 2.27275C11.0233 2.26247 11.007 2.24681 10.9959 2.2276C10.9849 2.20839 10.9795 2.18643 10.9804 2.16429L11.0576 0.398911L2.48406 0.935036C2.28012 0.947743 2.08922 1.03967 1.95213 1.1912C1.81504 1.34273 1.74261 1.54184 1.75031 1.74604L2.23281 14.6008C2.24018 14.7972 2.32114 14.9836 2.45962 15.1231C2.5981 15.2626 2.78396 15.3449 2.98031 15.3537L13.4318 15.8229C13.5375 15.8276 13.643 15.8109 13.742 15.7737C13.841 15.7365 13.9315 15.6797 14.0079 15.6067C14.0844 15.5336 14.1453 15.4458 14.1869 15.3486C14.2285 15.2513 14.2499 15.1467 14.2499 15.0409V1.03304C14.25 0.92608 14.2281 0.82025 14.1856 0.722084C14.1432 0.623917 14.081 0.535498 14.0031 0.462286C13.9251 0.389061 13.833 0.332581 13.7325 0.296334C13.6319 0.260086 13.5249 0.24484 13.4182 0.251536ZM8.23569 2.89991C10.2742 2.89991 11.3874 3.99029 11.3874 6.06479C11.1119 6.27891 9.05994 6.42479 9.05994 6.12016C9.10319 4.95766 8.58281 4.90679 8.29369 4.90679C8.01894 4.90679 7.55631 4.98954 7.55631 5.61229C7.55631 7.14829 11.5176 7.06541 11.5176 10.1653C11.5176 11.909 10.1007 12.8722 8.29369 12.8722C6.42869 12.8722 4.79906 12.1177 4.98306 9.50179C5.05531 9.19466 7.42619 9.26766 7.42619 9.50179C7.39744 10.5812 7.64306 10.8987 8.26456 10.8987C8.74169 10.8987 8.95869 10.6358 8.95869 10.1929C8.95869 8.61528 5.05531 8.56004 5.05531 5.66779C5.05531 4.00716 6.19744 2.89991 8.23569 2.89991Z" fill="#FF4785"/>
</svg>
