<svg width="20" height="20" viewBox="0 0 20 20" fill="none" xmlns="http://www.w3.org/2000/svg">
<g clip-path="url(#clip0_9_113)">
<path d="M15.3125 0H4.6875C2.09867 0 0 2.09867 0 4.6875V15.3125C0 17.9013 2.09867 20 4.6875 20H15.3125C17.9013 20 20 17.9013 20 15.3125V4.6875C20 2.09867 17.9013 0 15.3125 0Z" fill="url(#paint0_linear_9_113)"/>
<path d="M0.897393 10.0843L4.82739 11.6768V12.7916L0.175049 10.636V9.98196L0.897393 10.0843ZM4.82739 8.77626L0.903096 10.3914L0.175127 10.4711V9.81134L4.82731 7.66149L4.82739 8.77626ZM18.8571 10.3118L14.8133 8.73641V7.65009L19.6704 9.79993V10.4654L18.8571 10.3118ZM14.8133 11.6995L18.8685 10.09L19.6704 9.97055V10.6303L14.8133 12.7859V11.6995Z" fill="white"/>
<path fill-rule="evenodd" clip-rule="evenodd" d="M13.7559 4.77335C13.7334 5.13007 13.5727 5.50257 13.6175 5.84937C13.8982 6.34577 14.516 6.42491 15.0257 6.45898C15.3788 6.5221 15.3743 6.28827 15.3507 6.02562L15.355 4.76593C14.8219 4.76788 14.2887 4.76069 13.7559 4.77335ZM9.55269 5.77101C8.68488 5.91835 7.80519 6.33304 7.08324 6.83226C6.50214 7.28452 7.58207 7.7228 7.97386 7.79608C8.76214 7.80569 9.46129 7.27398 9.9791 6.7221C10.1482 6.49007 10.3593 6.13483 10.1469 5.86585C9.98472 5.72523 9.74886 5.75929 9.55269 5.77101ZM11.3993 7.03319C10.6858 7.16913 10.0069 7.46319 9.40621 7.87265C8.96582 8.01093 8.60285 8.49444 9.14855 8.73671C9.7216 9.19335 10.3857 9.08147 10.9135 8.77319C11.3968 8.48593 11.9188 8.13148 12.1424 7.59069C12.3536 6.99827 11.8087 6.97632 11.3993 7.03319ZM13.4235 9.32874C13.2906 9.88374 12.7317 10.1361 12.4343 10.5759C12.1912 10.8966 12.3038 11.2745 12.5806 11.527C12.7153 11.8065 12.9516 11.9626 13.205 11.7199C13.8575 11.2763 14.0379 10.4123 14.0108 9.66358C14.059 9.35437 13.7043 9.6339 13.4235 9.32874ZM10.9404 10.3712C10.0739 10.5194 9.2073 10.9416 8.48504 11.4401C7.92433 11.8917 8.98035 12.3134 9.37535 12.3803C10.1782 12.3815 10.8944 11.8641 11.4021 11.2764C11.5786 11.043 11.7926 10.5898 11.443 10.4043C11.2867 10.338 11.1052 10.3575 10.9404 10.3712Z" fill="#B956A6"/>
<path fill-rule="evenodd" clip-rule="evenodd" d="M7.08336 6.83229C6.41696 7.09893 5.77415 7.42268 5.1393 7.76174C5.02133 8.20041 5.11594 8.74361 5.0854 9.22463C5.08305 11.2024 5.08415 13.1803 5.08383 15.1581H6.55415C6.85102 14.8786 7.2229 14.674 7.5454 14.4202C8.78712 13.5296 10.0284 12.6356 11.2685 11.7476C11.3598 11.7886 11.3013 11.2108 11.1012 11.6121C10.6269 12.0585 9.99735 12.4256 9.33102 12.3897C8.9529 12.2653 8.34336 12.0543 8.33954 11.591C8.60571 11.2776 7.84844 11.755 7.64126 11.8234C6.96766 12.1468 6.31001 12.508 5.63501 12.8254C5.79719 12.6512 6.10063 12.4888 6.31579 12.316C7.85274 11.2127 9.3893 10.1051 10.9299 9.00268C11.2263 8.79463 11.5125 8.56768 11.818 8.37322C11.8459 8.48096 11.8982 7.85814 11.671 8.24158C11.2079 8.70064 10.5832 9.04236 9.92438 9.04705C9.55383 8.93455 8.76461 8.66557 8.94032 8.18713C9.02602 8.01924 8.14438 8.54502 8.53391 8.24854C8.94852 7.94557 9.36641 7.64799 9.78422 7.34814C9.99524 7.33228 9.95032 6.54846 9.6636 7.05408C9.18196 7.47728 8.54915 7.86447 7.88579 7.77268C7.51313 7.66541 7.06602 7.45768 6.93055 7.06799C6.88571 6.97439 7.18149 6.82854 7.08336 6.83229ZM9.84422 7.31611C9.80727 7.42182 9.91118 7.27752 9.84422 7.31611V7.31611Z" fill="#FCCC44"/>
<path fill-rule="evenodd" clip-rule="evenodd" d="M14.0546 6.30857C13.8466 7.30201 13.6191 8.34177 13.4236 9.32865C13.9855 10.0368 14.0399 8.8813 14.1382 8.55458C14.297 7.87169 14.4851 7.35607 14.5051 6.64904C14.5473 6.40771 14.2637 6.26161 14.0546 6.30857ZM14.6992 7.08755C14.6816 7.18935 14.7248 7.10669 14.6992 7.08755V7.08755ZM14.0437 9.31521C14.0708 9.25693 14.0708 9.37341 14.0437 9.31521V9.31521Z" fill="#62777F"/>
<path fill-rule="evenodd" clip-rule="evenodd" d="M14.4232 6.42109C14.5985 7.40562 14.0178 8.60172 13.8279 9.53C14.2591 9.21265 14.5923 7.77281 14.6775 7.20922C14.6994 7.14476 14.7265 6.98257 14.7323 6.97672C14.7594 6.83992 15.012 6.60812 15.0258 6.45898C15.1729 6.35523 14.3032 6.33859 14.4232 6.42109ZM14.0656 9.31523C14.0385 9.25695 14.0385 9.37343 14.0656 9.31523V9.31523Z" fill="#4E5E67"/>
<path fill-rule="evenodd" clip-rule="evenodd" d="M7.09789 6.8487C6.85477 7.09214 6.94602 7.03268 7.12695 6.83026L7.09789 6.8487ZM9.72758 6.96925C9.44594 7.39245 8.43031 7.74635 8.30242 7.77378C8.91336 7.65932 9.48281 7.27925 9.88352 6.83409C9.81984 6.86245 9.78203 6.92909 9.72758 6.96925ZM6.93086 7.10667C7.08266 7.47167 7.63461 7.71417 7.90281 7.77073C7.53664 7.65276 7.10563 7.44354 6.93086 7.10667ZM9.82227 7.31776C9.74562 7.40823 9.47266 7.54354 9.32875 7.67636C9.02008 7.90401 8.70078 8.11557 8.39562 8.34893C8.58992 8.34057 9.1593 7.91526 8.86742 8.34682C9.11477 8.77253 9.65328 9.06854 10.1443 9.04151C10.7927 8.93971 11.3907 8.5812 11.8205 8.0826C11.2987 8.59893 10.6089 9.08487 9.84555 9.01792C9.47609 8.9326 8.46656 8.41112 9.14187 8.04557C9.38 7.84971 9.79055 7.74714 9.83703 7.40292C9.82727 7.35995 9.90734 7.318 9.82227 7.31776ZM7.97391 7.79612C8.21961 7.76409 8.21961 7.82823 7.97391 7.79612V7.79612ZM11.8023 8.38401C10.8273 9.06323 9.86656 9.76901 8.90008 10.4604C7.80477 11.2443 6.71414 12.0311 5.61914 12.8144C6.03086 12.6756 6.44336 12.4045 6.85234 12.2172C7.41562 11.9192 8.00953 11.6839 8.53656 11.3219C9.57859 10.7085 10.6806 10.124 11.4821 9.1855C11.657 8.98034 11.8324 8.6501 11.8402 8.428C11.815 8.4351 11.8341 8.33917 11.8023 8.38401ZM8.48508 11.44C8.30969 11.6382 8.23844 11.7799 8.42047 11.5278C8.41727 11.5571 8.5682 11.3714 8.48508 11.44ZM11.1535 11.5349C10.6915 12.0221 10.0081 12.3735 9.36695 12.3971C10.1082 12.4025 10.777 11.9625 11.2791 11.4435C11.2462 11.4036 11.1794 11.5363 11.1535 11.5349ZM11.2947 11.688C9.74242 12.818 8.13656 13.9901 6.57906 15.116C6.82437 15.193 7.35867 15.2291 7.6025 14.9149C8.12125 14.557 8.70445 14.2938 9.22492 13.931C9.97859 13.4419 10.7855 12.9074 11.2136 12.0854C11.234 11.9752 11.3855 11.7769 11.2947 11.688ZM8.34055 11.7597C8.41258 12.0638 9.31305 12.4128 9.21539 12.346C8.88336 12.2296 8.55398 12.0482 8.34055 11.7597Z" fill="#DC9624"/>
</g>
<defs>
<linearGradient id="paint0_linear_9_113" x1="0" y1="20" x2="20" y2="0" gradientUnits="userSpaceOnUse">
<stop stop-color="#DB7093"/>
<stop offset="1" stop-color="#F3B661"/>
</linearGradient>
<clipPath id="clip0_9_113">
<rect width="20" height="20" fill="white"/>
</clipPath>
</defs>
</svg>
