<svg width="16" height="16" viewBox="0 0 16 16" fill="none" xmlns="http://www.w3.org/2000/svg">
<g clip-path="url(#clip0_13_2)">
<mask id="mask0_13_2" style="mask-type:alpha" maskUnits="userSpaceOnUse" x="0" y="0" width="16" height="16">
<path fill-rule="evenodd" clip-rule="evenodd" d="M11.3459 15.8908C11.4732 15.9404 11.6094 15.9633 11.7459 15.958C11.8825 15.9528 12.0165 15.9195 12.1396 15.8603L15.4337 14.2751C15.6034 14.1935 15.7465 14.0656 15.8467 13.9062C15.9469 13.7468 16 13.5623 16 13.374V2.62614C16 2.43785 15.9469 2.25336 15.8467 2.09392C15.7466 1.93448 15.6034 1.80657 15.4337 1.72489L12.1396 0.140018C11.9535 0.050456 11.7441 0.0209681 11.5405 0.055635C11.3368 0.0903019 11.149 0.187409 11.003 0.333518L4.69673 6.08677L1.94998 4.00164C1.82606 3.90761 1.67314 3.85991 1.51773 3.8668C1.36232 3.8737 1.21422 3.93476 1.09911 4.03939L0.218109 4.84077C0.149452 4.90321 0.0945854 4.9793 0.057018 5.06416C0.0194506 5.14903 9.7509e-06 5.2408 -6.08422e-05 5.3336C-0.000131435 5.42641 0.0191698 5.51821 0.0566081 5.60313C0.0940463 5.68805 0.148797 5.76422 0.217359 5.82677L2.59948 8.00002L0.217484 10.1734C0.14896 10.236 0.0942415 10.3121 0.0568264 10.397C0.0194114 10.4819 0.000122748 10.5737 0.000193334 10.6665C0.00026392 10.7593 0.0196922 10.851 0.0572364 10.9359C0.0947805 11.0207 0.149615 11.0968 0.218234 11.1593L1.09923 11.9606C1.21433 12.0653 1.36242 12.1264 1.51783 12.1333C1.67324 12.1402 1.82617 12.0925 1.95011 11.9985L4.69686 9.91352L11.0031 15.6666C11.1007 15.7642 11.2173 15.8405 11.3459 15.8908ZM12.0024 4.36789L7.21748 8.00002L12.0025 11.6323L12.0024 4.36789Z" fill="white"/>
</mask>
<g mask="url(#mask0_13_2)">
<path d="M15.4338 1.72756L12.1371 0.140058C11.9509 0.0503817 11.7414 0.0208313 11.5377 0.0555008C11.3339 0.0901702 11.146 0.187343 11 0.333558L0.207707 10.1734C0.139132 10.236 0.084367 10.3121 0.0469188 10.397C0.00947068 10.4819 -0.00983603 10.5737 -0.00976543 10.6665C-0.00969483 10.7593 0.00975152 10.8511 0.0473288 10.936C0.0849061 11.0208 0.139786 11.0969 0.208457 11.1593L1.08996 11.9607C1.20509 12.0655 1.35328 12.1266 1.5088 12.1335C1.66432 12.1405 1.81735 12.0927 1.94133 11.9986L14.9377 2.13918C15.3737 1.80843 16 2.11943 16 2.66668V2.62843C16 2.44019 15.9468 2.25577 15.8467 2.09638C15.7465 1.93699 15.6034 1.80923 15.4338 1.72756Z" fill="#0065A9"/>
<g filter="url(#filter0_d_13_2)">
<path d="M15.4338 14.2727L12.1371 15.86C11.9509 15.9497 11.7414 15.9793 11.5377 15.9447C11.334 15.91 11.146 15.8129 11 15.6667L0.207707 5.82674C0.139132 5.76421 0.084367 5.68805 0.0469188 5.60314C0.00947068 5.51823 -0.00983603 5.42644 -0.00976543 5.33364C-0.00969483 5.24083 0.00975152 5.14907 0.0473288 5.06421C0.0849061 4.97936 0.139786 4.90329 0.208457 4.84086L1.08996 4.03949C1.20509 3.9347 1.35328 3.87354 1.5088 3.86663C1.66432 3.85971 1.81735 3.90747 1.94133 4.00161L14.9377 13.8609C15.3737 14.1917 16 13.8807 16 13.3335V13.3717C16 13.56 15.9468 13.7444 15.8467 13.9038C15.7465 14.0632 15.6034 14.1911 15.4338 14.2727Z" fill="#007ACC"/>
</g>
<g filter="url(#filter1_d_13_2)">
<path d="M12.1372 15.8603C11.9509 15.9498 11.7415 15.9792 11.5377 15.9446C11.334 15.9099 11.1461 15.8128 10.9999 15.6667C11.3689 16.0357 11.9999 15.7743 11.9999 15.2524V0.747547C11.9999 0.225672 11.3689 -0.0357026 10.9999 0.333422C11.1461 0.187321 11.334 0.0902186 11.5377 0.0555333C11.7415 0.0208481 11.9509 0.0502924 12.1372 0.139797L15.4333 1.72505C15.603 1.80667 15.7463 1.93456 15.8465 2.09401C15.9468 2.25345 15.9999 2.43796 15.9999 2.6263V13.374C15.9999 13.5624 15.9468 13.7469 15.8465 13.9063C15.7463 14.0658 15.603 14.1937 15.4333 14.2753L12.1372 15.8603Z" fill="#1F9CF0"/>
</g>
<path opacity="0.25" fill-rule="evenodd" clip-rule="evenodd" d="M11.3362 15.8908C11.4635 15.9404 11.5997 15.9633 11.7362 15.958C11.8727 15.9528 12.0067 15.9195 12.1298 15.8603L15.424 14.2751C15.5936 14.1935 15.7368 14.0656 15.837 13.9061C15.9371 13.7467 15.9903 13.5622 15.9902 13.3739V2.62614C15.9903 2.43785 15.9371 2.25336 15.837 2.09392C15.7368 1.93448 15.5936 1.80657 15.424 1.72489L12.1298 0.140018C11.9437 0.050456 11.7343 0.0209681 11.5307 0.055635C11.3271 0.0903019 11.1392 0.187409 10.9932 0.333518L4.68697 6.08677L1.94022 4.00177C1.81629 3.90774 1.66337 3.86003 1.50796 3.86693C1.35255 3.87382 1.20445 3.93488 1.08934 4.03952L0.208344 4.84089C0.139704 4.90335 0.0848527 4.97944 0.0472964 5.0643C0.00973997 5.14916 -0.00969484 5.24093 -0.00976543 5.33373C-0.00983602 5.42653 0.00945917 5.51832 0.0468864 5.60324C0.0843137 5.68816 0.139049 5.76433 0.207594 5.82689L2.58972 8.00002L0.207719 10.1733C0.139157 10.2358 0.0844061 10.312 0.0469679 10.3969C0.00952957 10.4818 -0.00977163 10.5736 -0.00970103 10.6664C-0.00963044 10.7592 0.00981039 10.851 0.0473778 10.9359C0.0849453 11.0207 0.139812 11.0968 0.208469 11.1593L1.08947 11.9606C1.20456 12.0653 1.35265 12.1264 1.50806 12.1333C1.66347 12.1402 1.8164 12.0925 1.94034 11.9985L4.68722 9.91339L10.9935 15.6666C11.091 15.7642 11.2077 15.8405 11.3362 15.8908ZM11.9927 4.36777L7.20772 8.00002L11.9927 11.6321V4.36777Z" fill="url(#paint0_linear_13_2)"/>
</g>
</g>
<defs>
<filter id="filter0_d_13_2" x="-1.05152" y="2.82422" width="18.0932" height="14.1763" filterUnits="userSpaceOnUse" color-interpolation-filters="sRGB">
<feFlood flood-opacity="0" result="BackgroundImageFix"/>
<feColorMatrix in="SourceAlpha" type="matrix" values="0 0 0 0 0 0 0 0 0 0 0 0 0 0 0 0 0 0 127 0" result="hardAlpha"/>
<feOffset/>
<feGaussianBlur stdDeviation="0.520875"/>
<feColorMatrix type="matrix" values="0 0 0 0 0 0 0 0 0 0 0 0 0 0 0 0 0 0 0.25 0"/>
<feBlend mode="overlay" in2="BackgroundImageFix" result="effect1_dropShadow_13_2"/>
<feBlend mode="normal" in="SourceGraphic" in2="effect1_dropShadow_13_2" result="shape"/>
</filter>
<filter id="filter1_d_13_2" x="9.95819" y="-1.00037" width="7.0835" height="18.0009" filterUnits="userSpaceOnUse" color-interpolation-filters="sRGB">
<feFlood flood-opacity="0" result="BackgroundImageFix"/>
<feColorMatrix in="SourceAlpha" type="matrix" values="0 0 0 0 0 0 0 0 0 0 0 0 0 0 0 0 0 0 127 0" result="hardAlpha"/>
<feOffset/>
<feGaussianBlur stdDeviation="0.520875"/>
<feColorMatrix type="matrix" values="0 0 0 0 0 0 0 0 0 0 0 0 0 0 0 0 0 0 0.25 0"/>
<feBlend mode="overlay" in2="BackgroundImageFix" result="effect1_dropShadow_13_2"/>
<feBlend mode="normal" in="SourceGraphic" in2="effect1_dropShadow_13_2" result="shape"/>
</filter>
<linearGradient id="paint0_linear_13_2" x1="7.99022" y1="0.0412678" x2="7.99022" y2="15.9588" gradientUnits="userSpaceOnUse">
<stop stop-color="white"/>
<stop offset="1" stop-color="white" stop-opacity="0"/>
</linearGradient>
<clipPath id="clip0_13_2">
<rect width="16" height="16" fill="white"/>
</clipPath>
</defs>
</svg>
