<svg width="36" height="36" viewBox="0 0 36 36" fill="none" xmlns="http://www.w3.org/2000/svg">
<path d="M35.5 8.00001C35.5 6.67393 34.9732 5.40216 34.0355 4.46447C33.0979 3.52679 31.8261 3.00001 30.5 3.00001H29.25V1.78516C29.25 1.11251 28.7328 0.535164 28.0602 0.50157C27.8911 0.493427 27.7222 0.519683 27.5637 0.578747C27.4051 0.637811 27.2602 0.728453 27.1377 0.845181C27.0152 0.961909 26.9177 1.10229 26.851 1.25782C26.7844 1.41336 26.75 1.5808 26.75 1.75001V3.00001H9.25V1.78516C9.25 1.11251 8.73281 0.535164 8.06016 0.50157C7.89114 0.493427 7.72224 0.519683 7.56367 0.578747C7.40511 0.637811 7.26019 0.728453 7.13769 0.845181C7.01519 0.961909 6.91767 1.10229 6.85103 1.25782C6.78438 1.41336 6.75002 1.5808 6.75 1.75001V3.00001H5.5C4.17392 3.00001 2.90215 3.52679 1.96447 4.46447C1.02678 5.40216 0.5 6.67393 0.5 8.00001V8.93751C0.5 9.02039 0.532924 9.09987 0.591529 9.15848C0.650134 9.21708 0.72962 9.25001 0.8125 9.25001H35.1875C35.2704 9.25001 35.3499 9.21708 35.4085 9.15848C35.4671 9.09987 35.5 9.02039 35.5 8.93751V8.00001ZM0.5 30.5C0.5 31.8261 1.02678 33.0979 1.96447 34.0355C2.90215 34.9732 4.17392 35.5 5.5 35.5H30.5C31.8261 35.5 33.0979 34.9732 34.0355 34.0355C34.9732 33.0979 35.5 31.8261 35.5 30.5V11.9844C35.5 11.9222 35.4753 11.8626 35.4314 11.8187C35.3874 11.7747 35.3278 11.75 35.2656 11.75H0.734375C0.672215 11.75 0.612601 11.7747 0.568647 11.8187C0.524693 11.8626 0.5 11.9222 0.5 11.9844V30.5ZM27.375 14.25C27.7458 14.25 28.1084 14.36 28.4167 14.566C28.725 14.772 28.9654 15.0649 29.1073 15.4075C29.2492 15.7501 29.2863 16.1271 29.214 16.4908C29.1416 16.8545 28.963 17.1886 28.7008 17.4508C28.4386 17.7131 28.1045 17.8916 27.7408 17.964C27.3771 18.0363 27.0001 17.9992 26.6575 17.8573C26.3149 17.7154 26.022 17.475 25.816 17.1667C25.61 16.8584 25.5 16.4958 25.5 16.125C25.5 15.6277 25.6975 15.1508 26.0492 14.7992C26.4008 14.4476 26.8777 14.25 27.375 14.25ZM27.375 20.5C27.7458 20.5 28.1084 20.61 28.4167 20.816C28.725 21.022 28.9654 21.3149 29.1073 21.6575C29.2492 22.0001 29.2863 22.3771 29.214 22.7408C29.1416 23.1045 28.963 23.4386 28.7008 23.7008C28.4386 23.9631 28.1045 24.1416 27.7408 24.214C27.3771 24.2863 27.0001 24.2492 26.6575 24.1073C26.3149 23.9654 26.022 23.725 25.816 23.4167C25.61 23.1084 25.5 22.7458 25.5 22.375C25.5 21.8777 25.6975 21.4008 26.0492 21.0492C26.4008 20.6976 26.8777 20.5 27.375 20.5ZM21.125 14.25C21.4958 14.25 21.8584 14.36 22.1667 14.566C22.475 14.772 22.7154 15.0649 22.8573 15.4075C22.9992 15.7501 23.0363 16.1271 22.964 16.4908C22.8916 16.8545 22.713 17.1886 22.4508 17.4508C22.1886 17.7131 21.8545 17.8916 21.4908 17.964C21.1271 18.0363 20.7501 17.9992 20.4075 17.8573C20.0649 17.7154 19.772 17.475 19.566 17.1667C19.36 16.8584 19.25 16.4958 19.25 16.125C19.25 15.6277 19.4475 15.1508 19.7992 14.7992C20.1508 14.4476 20.6277 14.25 21.125 14.25ZM21.125 20.5C21.4958 20.5 21.8584 20.61 22.1667 20.816C22.475 21.022 22.7154 21.3149 22.8573 21.6575C22.9992 22.0001 23.0363 22.3771 22.964 22.7408C22.8916 23.1045 22.713 23.4386 22.4508 23.7008C22.1886 23.9631 21.8545 24.1416 21.4908 24.214C21.1271 24.2863 20.7501 24.2492 20.4075 24.1073C20.0649 23.9654 19.772 23.725 19.566 23.4167C19.36 23.1084 19.25 22.7458 19.25 22.375C19.25 21.8777 19.4475 21.4008 19.7992 21.0492C20.1508 20.6976 20.6277 20.5 21.125 20.5ZM21.125 26.75C21.4958 26.75 21.8584 26.86 22.1667 27.066C22.475 27.272 22.7154 27.5649 22.8573 27.9075C22.9992 28.2501 23.0363 28.6271 22.964 28.9908C22.8916 29.3545 22.713 29.6886 22.4508 29.9508C22.1886 30.2131 21.8545 30.3916 21.4908 30.464C21.1271 30.5363 20.7501 30.4992 20.4075 30.3573C20.0649 30.2154 19.772 29.975 19.566 29.6667C19.36 29.3584 19.25 28.9958 19.25 28.625C19.25 28.1277 19.4475 27.6508 19.7992 27.2992C20.1508 26.9476 20.6277 26.75 21.125 26.75ZM14.875 20.5C15.2458 20.5 15.6084 20.61 15.9167 20.816C16.225 21.022 16.4654 21.3149 16.6073 21.6575C16.7492 22.0001 16.7863 22.3771 16.714 22.7408C16.6416 23.1045 16.463 23.4386 16.2008 23.7008C15.9386 23.9631 15.6045 24.1416 15.2408 24.214C14.8771 24.2863 14.5001 24.2492 14.1575 24.1073C13.8149 23.9654 13.522 23.725 13.316 23.4167C13.11 23.1084 13 22.7458 13 22.375C13 21.8777 13.1975 21.4008 13.5492 21.0492C13.9008 20.6976 14.3777 20.5 14.875 20.5ZM14.875 26.75C15.2458 26.75 15.6084 26.86 15.9167 27.066C16.225 27.272 16.4654 27.5649 16.6073 27.9075C16.7492 28.2501 16.7863 28.6271 16.714 28.9908C16.6416 29.3545 16.463 29.6886 16.2008 29.9508C15.9386 30.2131 15.6045 30.3916 15.2408 30.464C14.8771 30.5363 14.5001 30.4992 14.1575 30.3573C13.8149 30.2154 13.522 29.975 13.316 29.6667C13.11 29.3584 13 28.9958 13 28.625C13 28.1277 13.1975 27.6508 13.5492 27.2992C13.9008 26.9476 14.3777 26.75 14.875 26.75ZM8.625 20.5C8.99584 20.5 9.35835 20.61 9.66669 20.816C9.97504 21.022 10.2154 21.3149 10.3573 21.6575C10.4992 22.0001 10.5363 22.3771 10.464 22.7408C10.3916 23.1045 10.213 23.4386 9.95083 23.7008C9.6886 23.9631 9.35451 24.1416 8.9908 24.214C8.62708 24.2863 8.25008 24.2492 7.90747 24.1073C7.56486 23.9654 7.27202 23.725 7.06599 23.4167C6.85997 23.1084 6.75 22.7458 6.75 22.375C6.75 21.8777 6.94754 21.4008 7.29917 21.0492C7.65081 20.6976 8.12772 20.5 8.625 20.5ZM8.625 26.75C8.99584 26.75 9.35835 26.86 9.66669 27.066C9.97504 27.272 10.2154 27.5649 10.3573 27.9075C10.4992 28.2501 10.5363 28.6271 10.464 28.9908C10.3916 29.3545 10.213 29.6886 9.95083 29.9508C9.6886 30.2131 9.35451 30.3916 8.9908 30.464C8.62708 30.5363 8.25008 30.4992 7.90747 30.3573C7.56486 30.2154 7.27202 29.975 7.06599 29.6667C6.85997 29.3584 6.75 28.9958 6.75 28.625C6.75 28.1277 6.94754 27.6508 7.29917 27.2992C7.65081 26.9476 8.12772 26.75 8.625 26.75Z" fill="#757575"/>
</svg>
