<svg width="40" height="40" viewBox="0 0 40 40" fill="none" xmlns="http://www.w3.org/2000/svg">
<path d="M30.5469 37.5C29.0219 37.5 26.8797 36.9484 23.6719 35.1563C19.7711 32.9688 16.7539 30.9492 12.8742 27.0797C9.13361 23.3414 7.3133 20.9211 4.76564 16.2852C1.88752 11.0508 2.37814 8.30704 2.92658 7.13438C3.57971 5.73282 4.54377 4.89454 5.78986 4.06251C6.49764 3.59879 7.24664 3.20127 8.02736 2.87501C8.10549 2.84141 8.17814 2.80938 8.24299 2.78048C8.62971 2.60626 9.21564 2.34298 9.95783 2.62423C10.4531 2.81016 10.8953 3.19063 11.5875 3.87423C13.0071 5.27423 14.9469 8.39219 15.6625 9.92344C16.143 10.9555 16.461 11.6367 16.4617 12.4008C16.4617 13.2953 16.0117 13.9852 15.4656 14.7297C15.3633 14.8695 15.2617 15.0031 15.1633 15.1328C14.5688 15.9141 14.4383 16.1399 14.5242 16.543C14.6985 17.3531 15.9977 19.7649 18.1328 21.8953C20.268 24.0258 22.6102 25.243 23.4235 25.4164C23.8438 25.5063 24.0742 25.3703 24.8805 24.7547C24.9961 24.6664 25.1149 24.575 25.2391 24.4836C26.0719 23.8641 26.7297 23.4258 27.6031 23.4258H27.6078C28.368 23.4258 29.0188 23.7555 30.0969 24.2992C31.5031 25.0086 34.7149 26.9234 36.1235 28.3445C36.8086 29.0352 37.1906 29.4758 37.3774 29.9703C37.6586 30.7149 37.3938 31.2984 37.2211 31.6891C37.1922 31.7539 37.1602 31.825 37.1266 31.9039C36.7977 32.6832 36.3979 33.4307 35.932 34.1367C35.1016 35.3789 34.2602 36.3406 32.8555 36.9945C32.1342 37.3358 31.3448 37.5086 30.5469 37.5Z" fill="#757575"/>
</svg>
