<svg width="24" height="34" viewBox="0 0 24 34" fill="none" xmlns="http://www.w3.org/2000/svg">
<path d="M12 16.1666C10.8949 16.1666 9.83513 15.7277 9.05373 14.9463C8.27233 14.1649 7.83334 13.105 7.83334 12C7.83334 10.8949 8.27233 9.8351 9.05373 9.0537C9.83513 8.2723 10.8949 7.83331 12 7.83331C13.1051 7.83331 14.1649 8.2723 14.9463 9.0537C15.7277 9.8351 16.1667 10.8949 16.1667 12C16.1667 12.5472 16.0589 13.089 15.8495 13.5945C15.6401 14.1 15.3332 14.5593 14.9463 14.9463C14.5594 15.3332 14.1 15.6401 13.5945 15.8495C13.089 16.0589 12.5472 16.1666 12 16.1666ZM12 0.333313C8.90582 0.333313 5.93836 1.56248 3.75043 3.7504C1.56251 5.93832 0.333344 8.90579 0.333344 12C0.333344 20.75 12 33.6666 12 33.6666C12 33.6666 23.6667 20.75 23.6667 12C23.6667 8.90579 22.4375 5.93832 20.2496 3.7504C18.0617 1.56248 15.0942 0.333313 12 0.333313Z" fill="#757575"/>
</svg>
