<svg width="34" height="28" viewBox="0 0 34 28" fill="none" xmlns="http://www.w3.org/2000/svg">
<path d="M3.66665 27.3334C2.74998 27.3334 1.96554 27.0072 1.31331 26.355C0.661091 25.7028 0.334424 24.9178 0.333313 24V4.00002C0.333313 3.08335 0.65998 2.29891 1.31331 1.64669C1.96665 0.994464 2.75109 0.667798 3.66665 0.666687H30.3333C31.25 0.666687 32.035 0.993353 32.6883 1.64669C33.3416 2.30002 33.6678 3.08446 33.6666 4.00002V24C33.6666 24.9167 33.3405 25.7017 32.6883 26.355C32.0361 27.0084 31.2511 27.3345 30.3333 27.3334H3.66665ZM17 15.375C17.1389 15.375 17.285 15.3539 17.4383 15.3117C17.5916 15.2695 17.7372 15.2072 17.875 15.125L29.6666 7.75002C29.8889 7.61113 30.0555 7.4378 30.1666 7.23002C30.2778 7.02224 30.3333 6.7928 30.3333 6.54169C30.3333 5.98613 30.0972 5.56946 29.625 5.29169C29.1528 5.01391 28.6666 5.0278 28.1666 5.33335L17 12.3334L5.83331 5.33335C5.33331 5.0278 4.8472 5.02113 4.37498 5.31335C3.90276 5.60558 3.66665 6.01502 3.66665 6.54169C3.66665 6.81946 3.7222 7.0628 3.83331 7.27169C3.94442 7.48058 4.11109 7.64002 4.33331 7.75002L16.125 15.125C16.2639 15.2084 16.41 15.2711 16.5633 15.3134C16.7166 15.3556 16.8622 15.3761 17 15.375Z" fill="#757575"/>
</svg>
