<svg width="28" height="28" viewBox="0 0 28 28" fill="none" xmlns="http://www.w3.org/2000/svg">
<path d="M14 14C12.1667 14 10.5972 13.3472 9.29166 12.0417C7.9861 10.7361 7.33332 9.16666 7.33332 7.33332C7.33332 5.49999 7.9861 3.93055 9.29166 2.62499C10.5972 1.31943 12.1667 0.666656 14 0.666656C15.8333 0.666656 17.4028 1.31943 18.7083 2.62499C20.0139 3.93055 20.6667 5.49999 20.6667 7.33332C20.6667 9.16666 20.0139 10.7361 18.7083 12.0417C17.4028 13.3472 15.8333 14 14 14ZM0.666656 24V22.6667C0.666656 21.7222 0.90999 20.8544 1.39666 20.0633C1.88332 19.2722 2.52888 18.6678 3.33332 18.25C5.05554 17.3889 6.80555 16.7433 8.58332 16.3133C10.3611 15.8833 12.1667 15.6678 14 15.6667C15.8333 15.6655 17.6389 15.8811 19.4167 16.3133C21.1944 16.7455 22.9444 17.3911 24.6667 18.25C25.4722 18.6667 26.1183 19.2711 26.605 20.0633C27.0917 20.8555 27.3344 21.7233 27.3333 22.6667V24C27.3333 24.9167 27.0072 25.7017 26.355 26.355C25.7028 27.0083 24.9178 27.3344 24 27.3333H3.99999C3.08332 27.3333 2.29888 27.0072 1.64666 26.355C0.994434 25.7028 0.667768 24.9178 0.666656 24Z" fill="#757575"/>
</svg>
